{
  "accessors": [
    {
      "bufferView": 1,
      "componentType": 5126,
      "count": 65532,
      "max": [
        41.883506774902344,
        4.1755080223083496,
        128.39466857910156
      ],
      "min": [
        -1.178404688835144,
        -4.1030616760253906,
        69.473114013671875
      ],
      "type": "VEC3"
    },
    {
      "bufferView": 1,
      "byteOffset": 786384,
      "componentType": 5126,
      "count": 65532,
      "max": [
        0.99999183416366577,
        0.99999672174453735,
        0.99996912479400635
      ],
      "min": [
        -0.99999028444290161,
        -0.99997556209564209,
        -0.99997818470001221
      ],
      "type": "VEC3"
    },
    {
      "bufferView": 2,
      "componentType": 5126,
      "count": 65532,
      "max": [
        0.92941176891326904,
        0.85882353782653809,
        0.78039216995239258,
        1
      ],
      "min": [
        0,
        0,
        0,
        0.15686275064945221
      ],
      "type": "VEC4"
    },
    {
      "bufferView": 0,
      "componentType": 5125,
      "count": 165333,
      "max": [
        65531
      ],
      "min": [
        0
      ],
      "type": "SCALAR"
    },
    {
      "bufferView": 1,
      "byteOffset": 1572768,
      "componentType": 5126,
      "count": 25903,
      "max": [
        43.441310882568359,
        6.6921639442443848,
        123.49390411376953
      ],
      "min": [
        -1.3023848533630371,
        -3.661341667175293,
        67.513076782226562
      ],
      "type": "VEC3"
    },
    {
      "bufferView": 1,
      "byteOffset": 1883604,
      "componentType": 5126,
      "count": 25903,
      "max": [
        0.99999332427978516,
        0.99998432397842407,
        0.99997669458389282
      ],
      "min": [
        -0.99999332427978516,
        -0.99989771842956543,
        -0.99997532367706299
      ],
      "type": "VEC3"
    },
    {
      "bufferView": 2,
      "byteOffset": 1048512,
      "componentType": 5126,
      "count": 25903,
      "max": [
        0.92941176891326904,
        0.85882353782653809,
        0.78039216995239258,
        1
      ],
      "min": [
        0.098039217293262482,
        0.054901961237192154,
        0.039215687662363052,
        0.15686275064945221
      ],
      "type": "VEC4"
    },
    {
      "bufferView": 0,
      "byteOffset": 661332,
      "componentType": 5125,
      "count": 65505,
      "max": [
        25902
      ],
      "min": [
        0
      ],
      "type": "SCALAR"
    }
  ],
  "asset": {
    "extras": {
      "author": "idrisb (https://sketchfab.com/idrisb)",
      "license": "CC-BY-4.0 (http://creativecommons.org/licenses/by/4.0/)",
      "source": "https://sketchfab.com/3d-models/houses-thru-maya-e27536e08c7a4238ade848b8653ccadb",
      "title": "Houses Thru Maya"
    },
    "generator": "Sketchfab-9.24.0",
    "version": "2.0"
  },
  "bufferViews": [
    {
      "buffer": 0,
      "byteLength": 923352,
      "byteOffset": 0,
      "name": "floatBufferViews",
      "target": 34963
    },
    {
      "buffer": 0,
      "byteLength": 2194440,
      "byteOffset": 923352,
      "byteStride": 12,
      "name": "floatBufferViews",
      "target": 34962
    },
    {
      "buffer": 0,
      "byteLength": 1462960,
      "byteOffset": 3117792,
      "byteStride": 16,
      "name": "floatBufferViews",
      "target": 34962
    }
  ],
  "buffers": [
    {
      "byteLength": 4580752,
      "uri": "scene.bin"
    }
  ],
  "extensionsUsed": [
    "KHR_materials_unlit"
  ],
  "materials": [
    {
      "doubleSided": true,
      "extensions": {
        "KHR_materials_unlit": {}
      },
      "name": "vertexColor_shader",
      "pbrMetallicRoughness": {
        "baseColorFactor": [
          1,
          1,
          1,
          1
        ],
        "metallicFactor": 0,
        "roughnessFactor": 1
      }
    }
  ],
  "meshes": [
    {
      "name": "houses_vertexColor_shader_0",
      "primitives": [
        {
          "attributes": {
            "COLOR_0": 2,
            "NORMAL": 1,
            "POSITION": 0
          },
          "indices": 3,
          "material": 0,
          "mode": 4
        }
      ]
    },
    {
      "name": "houses_vertexColor_shader_0",
      "primitives": [
        {
          "attributes": {
            "COLOR_0": 6,
            "NORMAL": 5,
            "POSITION": 4
          },
          "indices": 7,
          "material": 0,
          "mode": 4
        }
      ]
    }
  ],
  "nodes": [
    {
      "children": [
        1
      ],
      "name": "RootNode (gltf orientation matrix)",
      "rotation": [
        -0.70710678118654746,
        -0,
        -0,
        0.70710678118654757
      ]
    },
    {
      "children": [
        2
      ],
      "name": "RootNode (model correction matrix)"
    },
    {
      "children": [
        3
      ],
      "matrix": [
        1,
        0,
        0,
        0,
        0,
        0,
        1,
        0,
        0,
        -1,
        0,
        0,
        0,
        0,
        0,
        1
      ],
      "name": "b57879f063a44254a382549f499a1de3.fbx"
    },
    {
      "children": [
        4
      ],
      "name": "RootNode"
    },
    {
      "children": [
        5
      ],
      "name": "BakedMesh"
    },
    {
      "children": [
        6
      ],
      "name": "Root"
    },
    {
      "children": [
        7,
        8
      ],
      "matrix": [
        1.2235137101314568,
        0.06146785353671233,
        -0.69991482330551391,
        -0,
        0.057343036030349806,
        1.392067776992481,
        0.22249480052099194,
        -0,
        -0.70026483070337142,
        0.22139074737134629,
        -1.204682597051679,
        -0,
        66.563499450683594,
        -23.237333297729492,
        222.8583984375,
        1
      ],
      "name": "houses"
    },
    {
      "mesh": 0,
      "name": "houses_vertexColor_shader_0"
    },
    {
      "mesh": 1,
      "name": "houses_vertexColor_shader_0"
    }
  ],
  "scene": 0,
  "scenes": [
    {
      "name": "OSG_Scene",
      "nodes": [
        0
      ]
    }
  ]
}

