<svg width="31" height="31" viewBox="0 0 31 31" fill="none" xmlns="http://www.w3.org/2000/svg">
<path fill-rule="evenodd" clip-rule="evenodd" d="M22.7245 2.0245C26.074 2.08787 29.074 4.98391 29.1394 8.43936C29.171 13.5017 29.172 18.5641 29.1394 23.6255C29.076 26.9681 26.2245 29.974 22.7245 30.0403C17.6295 30.073 12.5344 30.073 7.43936 30.0403C4.08589 29.977 1.09084 27.1364 1.0245 23.6255C0.991832 18.5641 0.991832 13.5017 1.0245 8.43936C1.08787 5.09678 3.93837 2.09084 7.43936 2.0245C12.5344 1.99183 17.6295 1.99183 22.7245 2.0245V2.0245ZM7.5255 3.65916C4.99282 3.675 2.70767 5.88985 2.65916 8.46015C2.62748 13.5087 2.62748 18.5572 2.65916 23.6047C2.70668 26.1126 4.83342 28.3562 7.46015 28.4057C12.5413 28.4384 17.6225 28.4384 22.7037 28.4057C25.2196 28.3582 27.4552 26.1988 27.5047 23.6047C27.5364 18.5572 27.5364 13.5087 27.5047 8.46015C27.4572 5.95421 25.3304 3.70965 22.7037 3.65916C17.6443 3.62748 12.5849 3.65916 7.5255 3.65916V3.65916Z" fill="white"/>
<path d="M10.3193 19.3915C9.60314 19.3915 9.02046 19.1571 8.57124 18.6883C8.12202 18.2163 7.89742 17.5865 7.89742 16.7987V16.6327C7.89742 16.1086 7.9967 15.6415 8.19527 15.2313C8.39709 14.8179 8.67704 14.4956 9.03511 14.2645C9.39644 14.0301 9.78706 13.913 10.207 13.913C10.8938 13.913 11.4277 14.1392 11.8085 14.5917C12.1894 15.0441 12.3798 15.6919 12.3798 16.535V16.911H8.80074C8.81376 17.4318 8.96512 17.8534 9.25484 18.1756C9.54781 18.4947 9.9189 18.6542 10.3681 18.6542C10.6871 18.6542 10.9573 18.5891 11.1787 18.4589C11.4 18.3286 11.5937 18.1561 11.7597 17.9413L12.3115 18.371C11.8688 19.0513 11.2047 19.3915 10.3193 19.3915ZM10.207 14.6551C9.8424 14.6551 9.53641 14.7886 9.28902 15.0555C9.04162 15.3192 8.88863 15.6903 8.83003 16.1688H11.4765V16.1005C11.4505 15.6415 11.3268 15.2867 11.1054 15.036C10.8841 14.7821 10.5846 14.6551 10.207 14.6551ZM16.5058 17.8924C16.5058 17.6483 16.413 17.4595 16.2275 17.326C16.0452 17.1893 15.7246 17.0721 15.2656 16.9745C14.8099 16.8768 14.4469 16.7596 14.1767 16.6229C13.9098 16.4862 13.7112 16.3234 13.581 16.1346C13.4541 15.9458 13.3906 15.7212 13.3906 15.4608C13.3906 15.0279 13.5729 14.6617 13.9375 14.3622C14.3053 14.0627 14.774 13.913 15.3437 13.913C15.9427 13.913 16.4277 14.0676 16.7988 14.3768C17.1731 14.6861 17.3603 15.0816 17.3603 15.5633H16.4521C16.4521 15.3159 16.3463 15.1027 16.1347 14.9237C15.9264 14.7447 15.6627 14.6551 15.3437 14.6551C15.0149 14.6551 14.7578 14.7268 14.5722 14.87C14.3867 15.0132 14.2939 15.2004 14.2939 15.4315C14.2939 15.6496 14.3802 15.814 14.5527 15.9247C14.7252 16.0353 15.0361 16.1411 15.4853 16.2421C15.9378 16.343 16.304 16.4634 16.5839 16.6034C16.8639 16.7434 17.0706 16.9126 17.2041 17.1112C17.3408 17.3065 17.4091 17.5458 17.4091 17.829C17.4091 18.301 17.2203 18.6802 16.8427 18.9667C16.4651 19.2499 15.9752 19.3915 15.373 19.3915C14.9498 19.3915 14.5755 19.3166 14.25 19.1669C13.9244 19.0171 13.6689 18.8088 13.4834 18.5419C13.3011 18.2717 13.2099 17.9803 13.2099 17.6678H14.1132C14.1295 17.9706 14.25 18.2115 14.4746 18.3905C14.7024 18.5663 15.0019 18.6542 15.373 18.6542C15.7148 18.6542 15.9882 18.5858 16.1933 18.4491C16.4016 18.3091 16.5058 18.1236 16.5058 17.8924ZM20.705 18.6542C21.0273 18.6542 21.3089 18.5565 21.5498 18.3612C21.7906 18.1659 21.9241 17.9217 21.9501 17.6288H22.8046C22.7884 17.9315 22.6842 18.2196 22.4921 18.493C22.3001 18.7665 22.0429 18.9846 21.7207 19.1473C21.4016 19.3101 21.0631 19.3915 20.705 19.3915C19.9856 19.3915 19.4127 19.1522 18.9863 18.6737C18.5631 18.1919 18.3515 17.5344 18.3515 16.701V16.5497C18.3515 16.0353 18.4459 15.578 18.6347 15.1776C18.8235 14.7772 19.0937 14.4663 19.4453 14.245C19.8001 14.0236 20.2184 13.913 20.7001 13.913C21.2926 13.913 21.7841 14.0904 22.1748 14.4452C22.5686 14.8 22.7786 15.2606 22.8046 15.827H21.9501C21.9241 15.4852 21.7939 15.2053 21.5595 14.9872C21.3284 14.7658 21.0419 14.6551 20.7001 14.6551C20.2412 14.6551 19.8847 14.8212 19.6308 15.1532C19.3802 15.482 19.2548 15.9589 19.2548 16.5839V16.7547C19.2548 17.3635 19.3802 17.8322 19.6308 18.161C19.8815 18.4898 20.2395 18.6542 20.705 18.6542Z" fill="white"/>
</svg>
