<svg width="100" height="100" viewBox="0 0 100 100" fill="none" xmlns="http://www.w3.org/2000/svg">
<path fill-rule="evenodd" clip-rule="evenodd" d="M27.0703 51.1545C30.4238 51.2178 33.4188 54.0584 33.4851 57.5693C33.5178 62.6644 33.5178 67.7594 33.4851 72.8545C33.4208 76.2139 30.5812 79.203 27.0703 79.2693C22.0079 79.301 16.9465 79.301 11.8842 79.2693C8.55347 79.2059 5.53564 76.3554 5.46931 72.8545C5.43762 67.7594 5.43762 62.6644 5.46931 57.5693C5.53267 54.2149 8.38317 51.2208 11.8842 51.1545C16.9465 51.1218 22.0079 51.1218 27.0703 51.1545ZM11.9703 52.7881C9.43069 52.805 7.15248 55.0347 7.10396 57.5901C7.07228 62.6713 7.07228 67.7525 7.10396 72.8337C7.15149 75.3465 9.35941 77.5861 11.905 77.6347C16.9535 77.6663 22.002 77.6663 27.0495 77.6347C29.5545 77.5871 31.8 75.4604 31.8505 72.8337C31.8832 67.7525 31.8832 62.6713 31.8505 57.5901C31.803 55.0851 29.6762 52.8386 27.0495 52.7891C22.0238 52.7574 16.997 52.7881 11.9703 52.7881V52.7881Z" fill="white"/>
<path fill-rule="evenodd" clip-rule="evenodd" d="M57.6921 51.2535C61.0416 51.3168 64.0396 54.1584 64.1069 57.6683C64.1386 62.7297 64.1386 67.7921 64.1069 72.8545C64.0436 76.1871 61.202 79.203 57.6921 79.2693C52.597 79.302 47.502 79.302 42.4069 79.2693C39.0644 79.2059 36.0584 76.3554 35.9921 72.8545C35.9594 67.7921 35.9594 62.7297 35.9921 57.6683C36.0545 54.3317 38.896 51.3198 42.4069 51.2535C47.502 51.2218 52.597 51.2218 57.6921 51.2535V51.2535ZM42.4931 52.8871C39.9554 52.903 37.6752 55.1337 37.6267 57.6891C37.5941 62.7366 37.5941 67.7851 37.6267 72.8337C37.6743 75.3485 39.8822 77.5861 42.4277 77.6347C47.5089 77.6663 52.5901 77.6663 57.6713 77.6347C60.1752 77.5871 62.4218 75.4604 62.4723 72.8337C62.504 67.7851 62.504 62.7366 62.4723 57.6891C62.4238 55.1723 60.2644 52.9376 57.6713 52.8881C52.6119 52.8564 47.5525 52.8871 42.4931 52.8871V52.8871Z" fill="white"/>
<path fill-rule="evenodd" clip-rule="evenodd" d="M47.2812 20.7307C50.6307 20.7941 53.6307 23.6901 53.696 27.1455C53.7277 32.2079 53.7287 37.2703 53.696 42.3317C53.6327 45.6743 50.7812 48.6802 47.2812 48.7465C42.1861 48.7792 37.0911 48.7792 31.996 48.7465C28.6426 48.6832 25.6475 45.8426 25.5812 42.3317C25.5485 37.2703 25.5485 32.2079 25.5812 27.1455C25.6446 23.803 28.4951 20.797 31.996 20.7307C37.0911 20.698 42.1861 20.698 47.2812 20.7307V20.7307ZM32.0822 22.3653C29.5495 22.3812 27.2644 24.596 27.2158 27.1663C27.1842 32.2149 27.1842 37.2634 27.2158 42.3109C27.2634 44.8188 29.3901 47.0624 32.0168 47.1119C37.098 47.1446 42.1792 47.1446 47.2604 47.1119C49.7762 47.0644 52.0119 44.905 52.0614 42.3109C52.0931 37.2634 52.0931 32.2149 52.0614 27.1663C52.0139 24.6604 49.8871 22.4158 47.2604 22.3653C42.201 22.3337 37.1416 22.3653 32.0822 22.3653V22.3653Z" fill="white"/>
<path fill-rule="evenodd" clip-rule="evenodd" d="M88.1149 51.1545C91.4683 51.2178 94.4634 54.0584 94.5307 57.5693C94.5624 62.6644 94.5624 67.7594 94.5307 72.8545C94.4663 76.2139 91.6257 79.203 88.1149 79.2693C83.0535 79.301 77.9911 79.301 72.9287 79.2693C69.599 79.2059 66.5812 76.3545 66.5139 72.8545C66.4822 67.7594 66.4822 62.6644 66.5139 57.5693C66.5782 54.2089 69.4188 51.2208 72.9287 51.1545C77.9911 51.1218 83.0535 51.1218 88.1149 51.1545ZM73.0158 52.7881C70.4861 52.805 68.199 54.9624 68.1485 57.5901C68.1168 62.6713 68.1168 67.7525 68.1485 72.8337C68.197 75.3594 70.4168 77.5861 72.9495 77.6347C77.998 77.6663 83.0465 77.6663 88.095 77.6347C90.6 77.5871 92.8455 75.4604 92.895 72.8337C92.9277 67.7525 92.9277 62.6713 92.895 57.5901C92.8475 55.0851 90.7218 52.8386 88.0941 52.7891C83.0683 52.7574 78.0416 52.7881 73.0158 52.7881Z" fill="white"/>
<path d="M36.8301 36.3105L36.9941 37.4355L37.2344 36.4219L38.9219 30.4688H39.8711L41.5176 36.4219L41.752 37.4531L41.9336 36.3047L43.2578 30.4688H44.3887L42.3203 39H41.2949L39.5371 32.7832L39.4023 32.1328L39.2676 32.7832L37.4453 39H36.4199L34.3574 30.4688H35.4824L36.8301 36.3105Z" fill="white"/>
<path d="M20.7012 66.7734H17.127L16.3242 69H15.1641L18.4219 60.4688H19.4062L22.6699 69H21.5156L20.7012 66.7734ZM17.4668 65.8477H20.3672L18.9141 61.8574L17.4668 65.8477Z" fill="white"/>
<path d="M49.5039 65.1973C48.5391 64.9199 47.8359 64.5801 47.3945 64.1777C46.957 63.7715 46.7383 63.2715 46.7383 62.6777C46.7383 62.0059 47.0059 61.4512 47.541 61.0137C48.0801 60.5723 48.7793 60.3516 49.6387 60.3516C50.2246 60.3516 50.7461 60.4648 51.2031 60.6914C51.6641 60.918 52.0195 61.2305 52.2695 61.6289C52.5234 62.0273 52.6504 62.4629 52.6504 62.9355H51.5195C51.5195 62.4199 51.3555 62.0156 51.0273 61.7227C50.6992 61.4258 50.2363 61.2773 49.6387 61.2773C49.084 61.2773 48.6504 61.4004 48.3379 61.6465C48.0293 61.8887 47.875 62.2266 47.875 62.6602C47.875 63.0078 48.0215 63.3027 48.3145 63.5449C48.6113 63.7832 49.1133 64.002 49.8203 64.2012C50.5312 64.4004 51.0859 64.6211 51.4844 64.8633C51.8867 65.1016 52.1836 65.3809 52.375 65.7012C52.5703 66.0215 52.668 66.3984 52.668 66.832C52.668 67.5234 52.3984 68.0781 51.8594 68.4961C51.3203 68.9102 50.5996 69.1172 49.6973 69.1172C49.1113 69.1172 48.5645 69.0059 48.0566 68.7832C47.5488 68.5566 47.1562 68.248 46.8789 67.8574C46.6055 67.4668 46.4688 67.0234 46.4688 66.5273H47.5996C47.5996 67.043 47.7891 67.4512 48.168 67.752C48.5508 68.0488 49.0605 68.1973 49.6973 68.1973C50.291 68.1973 50.7461 68.0762 51.0625 67.834C51.3789 67.5918 51.5371 67.2617 51.5371 66.8438C51.5371 66.4258 51.3906 66.1035 51.0977 65.877C50.8047 65.6465 50.2734 65.4199 49.5039 65.1973Z" fill="white"/>
<path d="M77.9902 69V60.4688H80.3984C81.1406 60.4688 81.7969 60.6328 82.3672 60.9609C82.9375 61.2891 83.377 61.7559 83.6855 62.3613C83.998 62.9668 84.1562 63.6621 84.1602 64.4473V64.9922C84.1602 65.7969 84.0039 66.502 83.6914 67.1074C83.3828 67.7129 82.9395 68.1777 82.3613 68.502C81.7871 68.8262 81.1172 68.9922 80.3516 69H77.9902ZM79.1152 61.3945V68.0801H80.2988C81.166 68.0801 81.8398 67.8105 82.3203 67.2715C82.8047 66.7324 83.0469 65.9648 83.0469 64.9688V64.4707C83.0469 63.502 82.8184 62.75 82.3613 62.2148C81.9082 61.6758 81.2637 61.4023 80.4277 61.3945H79.1152Z" fill="white"/>
</svg>
