<svg height='100px' width='100px'  fill="#FFFFFF" xmlns="http://www.w3.org/2000/svg" xmlns:xlink="http://www.w3.org/1999/xlink" xml:space="preserve" version="1.1" style="shape-rendering:geometricPrecision;text-rendering:geometricPrecision;image-rendering:optimizeQuality;" viewBox="0 0 846.66 846.66" x="0px" y="0px" fill-rule="evenodd" clip-rule="evenodd"><defs><style type="text/css">
   
    .fil0 {fill:#FFFFFF;fill-rule:nonzero}
   
  </style></defs><g><path class="fil0" d="M125.81 455.52c7.6,-83.25 135.03,-80.35 135.03,6.18l0 307.97c0,86.58 -127.43,89.34 -135.03,6.18l-32.45 0c-7.49,0 -14.03,-4.06 -17.54,-10.1l-51.54 -74.29c-2.42,-3.51 -3.58,-7.52 -3.57,-11.48l-0.07 -128.59c0,-4.88 1.72,-9.35 4.58,-12.84l19.79 -28.52c-70.16,-248.54 116.33,-499.83 378.32,-499.83 261.99,0 448.48,251.29 378.32,499.83l19.79 28.52c2.86,3.49 4.58,7.96 4.58,12.84l-0.07 128.59c0.01,3.96 -1.15,7.97 -3.57,11.48l-51.54 74.29c-3.51,6.04 -10.05,10.1 -17.54,10.1l-32.45 0c-7.6,83.16 -135.03,80.4 -135.03,-6.18l0 -307.97c0,-86.53 127.43,-89.43 135.03,-6.18l32.45 0.06c6.41,0.01 12.71,3.05 16.63,8.73l0.6 0.86c12.92,-72.43 2.63,-147.69 -29.06,-214l-101.45 -27.77c-3.6,-0.98 -6.97,-2.97 -9.66,-5.94 -53.01,-58.69 -127.96,-91.91 -207.03,-91.91 -78.88,0 -153.67,33.06 -206.67,91.5 -2.54,2.98 -5.97,5.24 -10.02,6.35l-101.45 27.77c-31.69,66.31 -41.98,141.57 -29.06,214l0.6 -0.86c3.92,-5.68 10.22,-8.72 16.63,-8.73l32.45 -0.06zm586.63 -254.17c-65.89,-94.36 -173.73,-150.6 -289.11,-150.6 -115.38,0 -223.22,56.24 -289.11,150.6l56.2 -15.38c60.24,-64.23 144.82,-100.96 232.91,-100.96 88.09,0 172.67,36.73 232.91,100.96l56.2 15.38zm-651.26 356.27l0 116.13 42.71 61.55 21.64 0 0 -239.24 -21.64 0c-14.24,20.52 -28.47,41.04 -42.71,61.56zm681.59 -61.56l-21.64 0 0 239.24 21.64 0 42.71 -61.55 0 -116.13c-14.24,-20.52 -28.47,-41.04 -42.71,-61.56zm-116.4 -34.36l0 307.97c0,36.29 54.21,34.73 54.21,0 0,-102.66 0,-205.32 0,-307.97 0,-35.08 -54.21,-36.07 -54.21,0zm-460.29 307.97c0,34.73 54.21,36.29 54.21,0l0 -307.97c0,-36.07 -54.21,-35.08 -54.21,0 0,102.65 0,205.31 0,307.97z"></path></g></svg>