<?xml version="1.0" standalone="no"?>
<!DOCTYPE svg PUBLIC "-//W3C//DTD SVG 20010904//EN"
 "http://www.w3.org/TR/2001/REC-SVG-20010904/DTD/svg10.dtd">
<svg version="1.0" xmlns="http://www.w3.org/2000/svg"
 width="256.000000pt" height="256.000000pt" viewBox="0 0 256.000000 256.000000"
 preserveAspectRatio="xMidYMid meet">
<metadata>
Created by potrace 1.11, written by Peter Selinger 2001-2013
</metadata>
<g transform="translate(0.000000,256.000000) scale(0.100000,-0.100000)"
fill="#000000" stroke="none">
<path d="M51 2546 c-53 -29 -50 28 -51 -1264 0 -1308 -3 -1244 55 -1270 20 -9
317 -12 1226 -12 1304 0 1241 -3 1267 55 17 38 17 2412 0 2450 -26 58 38 55
-1270 55 -979 -1 -1207 -3 -1227 -14z m1453 -736 c92 -24 123 -39 172 -82 82
-72 160 -185 222 -320 3 -7 -78 -19 -133 -20 -135 -2 -561 21 -655 36 -73 12
-215 47 -245 62 -19 9 -49 32 -66 51 -34 39 -38 27 41 117 58 65 70 74 157
117 104 52 136 60 248 68 102 7 146 2 259 -29z m-1270 -459 c-5 -4 -31 -5 -59
-1 l-50 7 59 2 c35 0 56 -3 50 -8z m1521 -6 c149 -1 276 -5 283 -9 7 -4 12
-31 12 -64 0 -31 5 -84 10 -117 9 -56 8 -61 -13 -77 -80 -62 -383 -158 -504
-159 -31 -1 -83 10 -132 26 -78 27 -81 27 -121 11 -52 -21 -71 -20 -199 4 -58
11 -146 26 -196 34 -199 33 -375 94 -367 127 17 66 41 212 37 219 -3 5 3 11
12 14 10 3 218 2 463 -1 245 -4 567 -7 715 -8z m729 5 c-26 -26 -224 -41 -224
-17 0 8 2 16 4 18 3 2 56 5 118 7 81 2 110 0 102 -8z m-126 -130 c-24 -15
-108 -25 -108 -13 0 19 14 23 69 23 41 -1 52 -3 39 -10z m-2078 -25 c0 -19
-28 -19 -71 0 l-34 14 53 1 c40 0 52 -4 52 -15z"/>
<path d="M581 1221 c-8 -5 -15 -28 -16 -55 -1 -37 3 -49 21 -60 16 -11 24 -12
33 -3 15 15 14 100 -1 115 -14 14 -19 15 -37 3z m31 -61 c5 -50 -6 -71 -21
-42 -16 30 -14 82 3 82 9 0 15 -14 18 -40z"/>
<path d="M750 1221 c-58 -5 -66 -9 -74 -32 -5 -14 -6 -37 -3 -51 6 -21 14 -26
54 -31 27 -4 65 -3 85 2 20 5 39 7 40 5 2 -2 22 3 43 11 l40 15 -55 -8 c-30
-4 -84 -7 -120 -7 l-65 0 -3 32 c-4 36 -4 36 142 53 105 13 176 5 177 -19 0
-11 2 -12 6 -3 3 7 -1 19 -7 27 -13 16 -122 18 -260 6z"/>
<path d="M1978 1213 c-17 -19 -15 -58 3 -80 12 -14 49 -18 49 -5 0 4 3 17 6
30 4 12 2 22 -4 22 -5 0 -13 -11 -16 -25 -9 -37 -26 -31 -26 9 0 34 20 61 28
38 2 -7 8 -12 13 -12 6 0 5 8 -1 20 -13 25 -32 26 -52 3z"/>
<path d="M1618 1213 c-41 -11 -27 -68 19 -77 83 -15 115 -19 187 -21 72 -2 81
-1 103 21 37 37 28 67 -22 76 -43 7 -259 9 -287 1z m275 -19 c41 -7 45 -15 21
-38 -19 -19 -117 -21 -214 -5 -36 6 -70 12 -77 12 -8 0 -9 6 -2 19 9 16 23 18
122 18 62 0 129 -3 150 -6z"/>
<path d="M985 1161 c-6 -5 -19 -11 -30 -14 -20 -5 -19 -5 1 -6 11 0 29 6 40
14 10 8 14 15 9 15 -6 0 -15 -4 -20 -9z"/>
<path d="M1796 1038 c3 -5 18 -7 34 -6 16 1 27 5 24 8 -9 8 -63 7 -58 -2z"/>
<path d="M1913 1033 c9 -2 25 -2 35 0 9 3 1 5 -18 5 -19 0 -27 -2 -17 -5z"/>
</g>
</svg>
