{
  "accessors": [
    {
      "bufferView": 1,
      "componentType": 5126,
      "count": 6811,
      "max": [
        0.53578197956085205,
        2.0542545318603516,
        0.5459703803062439
      ],
      "min": [
        -2.5120019912719727,
        0.45348870754241943,
        -2.6880924701690674
      ],
      "type": "VEC3"
    },
    {
      "bufferView": 1,
      "byteOffset": 81732,
      "componentType": 5126,
      "count": 6811,
      "max": [
        0.99940335750579834,
        0.99980682134628296,
        0.99928128719329834
      ],
      "min": [
        -0.9999043345451355,
        -0.99989622831344604,
        -0.99973404407501221
      ],
      "type": "VEC3"
    },
    {
      "bufferView": 2,
      "componentType": 5126,
      "count": 6811,
      "max": [
        0.75686275959014893,
        0.92941176891326904,
        0.76862746477127075,
        1
      ],
      "min": [
        0.094117648899555206,
        0.047058824449777603,
        0.078431375324726105,
        1
      ],
      "type": "VEC4"
    },
    {
      "bufferView": 0,
      "componentType": 5125,
      "count": 23526,
      "max": [
        6810
      ],
      "min": [
        0
      ],
      "type": "SCALAR"
    },
    {
      "bufferView": 1,
      "byteOffset": 163464,
      "componentType": 5126,
      "count": 4858,
      "max": [
        0.77773922681808472,
        9.8706369400024414,
        0.66366153955459595
      ],
      "min": [
        -2.3644344806671143,
        0.010634700767695904,
        -2.6076071262359619
      ],
      "type": "VEC3"
    },
    {
      "bufferView": 1,
      "byteOffset": 221760,
      "componentType": 5126,
      "count": 4858,
      "max": [
        1,
        1,
        0.99898850917816162
      ],
      "min": [
        -0.99987047910690308,
        -1,
        -0.999248206615448
      ],
      "type": "VEC3"
    },
    {
      "bufferView": 2,
      "byteOffset": 108976,
      "componentType": 5126,
      "count": 4858,
      "max": [
        0.92156863212585449,
        0.99607843160629272,
        0.93333333730697632,
        1
      ],
      "min": [
        0.57647061347961426,
        0.78823530673980713,
        0.58039218187332153,
        0
      ],
      "type": "VEC4"
    },
    {
      "bufferView": 0,
      "byteOffset": 94104,
      "componentType": 5125,
      "count": 13374,
      "max": [
        4857
      ],
      "min": [
        0
      ],
      "type": "SCALAR"
    },
    {
      "bufferView": 3,
      "componentType": 5126,
      "count": 3,
      "max": [
        0.16667667031288147
      ],
      "min": [
        0
      ],
      "type": "SCALAR"
    },
    {
      "bufferView": 4,
      "componentType": 5126,
      "count": 3,
      "max": [
        1,
        1,
        1
      ],
      "min": [
        1.000000013351432e-10,
        1.000000013351432e-10,
        1.000000013351432e-10
      ],
      "type": "VEC3"
    }
  ],
  "animations": [
    {
      "channels": [
        {
          "sampler": 0,
          "target": {
            "node": 12,
            "path": "scale"
          }
        }
      ],
      "name": "Take 001",
      "samplers": [
        {
          "input": 8,
          "interpolation": "LINEAR",
          "output": 9
        }
      ]
    }
  ],
  "asset": {
    "extras": {
      "author": "idrisb (https://sketchfab.com/idrisb)",
      "license": "CC-BY-4.0 (http://creativecommons.org/licenses/by/4.0/)",
      "source": "https://sketchfab.com/3d-models/well1-a5d681986a7d4180a61dc0dc01415d2f",
      "title": "well1"
    },
    "generator": "Sketchfab-9.22.0",
    "version": "2.0"
  },
  "bufferViews": [
    {
      "buffer": 0,
      "byteLength": 147600,
      "byteOffset": 0,
      "name": "floatBufferViews",
      "target": 34963
    },
    {
      "buffer": 0,
      "byteLength": 280056,
      "byteOffset": 147600,
      "byteStride": 12,
      "name": "floatBufferViews",
      "target": 34962
    },
    {
      "buffer": 0,
      "byteLength": 186704,
      "byteOffset": 427656,
      "byteStride": 16,
      "name": "floatBufferViews",
      "target": 34962
    },
    {
      "buffer": 0,
      "byteLength": 12,
      "byteOffset": 614360,
      "name": "floatBufferViews"
    },
    {
      "buffer": 0,
      "byteLength": 36,
      "byteOffset": 614372,
      "byteStride": 12,
      "name": "floatBufferViews"
    }
  ],
  "buffers": [
    {
      "byteLength": 614408,
      "uri": "scene.bin"
    }
  ],
  "extensionsUsed": [
    "KHR_materials_unlit"
  ],
  "materials": [
    {
      "doubleSided": true,
      "extensions": {
        "KHR_materials_unlit": {}
      },
      "name": "vertexColor_shader",
      "pbrMetallicRoughness": {
        "baseColorFactor": [
          1,
          1,
          1,
          1
        ],
        "metallicFactor": 0,
        "roughnessFactor": 1
      }
    }
  ],
  "meshes": [
    {
      "name": "Well1_0000_vertexColor_shader_0",
      "primitives": [
        {
          "attributes": {
            "COLOR_0": 2,
            "NORMAL": 1,
            "POSITION": 0
          },
          "indices": 3,
          "material": 0,
          "mode": 4
        }
      ]
    },
    {
      "name": "NewLayer0_0000_vertexColor_shader_0",
      "primitives": [
        {
          "attributes": {
            "COLOR_0": 6,
            "NORMAL": 5,
            "POSITION": 4
          },
          "indices": 7,
          "material": 0,
          "mode": 4
        }
      ]
    }
  ],
  "nodes": [
    {
      "children": [
        1
      ],
      "name": "RootNode (gltf orientation matrix)",
      "rotation": [
        -0.70710678118654746,
        -0,
        -0,
        0.70710678118654757
      ]
    },
    {
      "children": [
        2
      ],
      "name": "RootNode (model correction matrix)"
    },
    {
      "children": [
        3
      ],
      "matrix": [
        1,
        0,
        0,
        0,
        0,
        0,
        1,
        0,
        0,
        -1,
        0,
        0,
        0,
        0,
        0,
        1
      ],
      "name": "5ffddb8dc1cf4105a3f41b0af24f1a67.fbx"
    },
    {
      "children": [
        4
      ],
      "name": ""
    },
    {
      "children": [
        5
      ],
      "name": "RootNode"
    },
    {
      "children": [
        6
      ],
      "name": "BakedMesh"
    },
    {
      "children": [
        7
      ],
      "name": "Root"
    },
    {
      "children": [
        8,
        11
      ],
      "name": "Wells",
      "rotation": [
        -0.013503373600542545,
        -0.67529726028442383,
        0.011727296747267246,
        0.73732876777648926
      ],
      "translation": [
        14.34288215637207,
        -1.8411417007446289,
        40.649982452392578
      ]
    },
    {
      "children": [
        9
      ],
      "name": "Well1",
      "rotation": [
        3.1299379590603721e-19,
        -7.837208956206352e-37,
        -2.5039503672482977e-18,
        1
      ],
      "scale": [
        0.69279468059539795,
        0.69279468059539795,
        0.69279468059539795
      ],
      "translation": [
        -0.28518515825271606,
        -0.0071089710108935833,
        -0.28706157207489014
      ]
    },
    {
      "children": [
        10
      ],
      "name": "Well1_0000",
      "rotation": [
        2.1684043449710089e-19,
        0,
        0,
        1
      ]
    },
    {
      "mesh": 0,
      "name": "Well1_0000_vertexColor_shader_0"
    },
    {
      "children": [
        12
      ],
      "name": "NewLayer0",
      "rotation": [
        2.1684043449710089e-19,
        -7.5231638452626401e-37,
        -3.4694469519536142e-18,
        1
      ]
    },
    {
      "children": [
        13
      ],
      "name": "NewLayer0_0000",
      "rotation": [
        -4.3368086899420177e-19,
        -6.9388939039072284e-18,
        -3.4694469519536142e-18,
        1
      ]
    },
    {
      "mesh": 1,
      "name": "NewLayer0_0000_vertexColor_shader_0"
    }
  ],
  "scene": 0,
  "scenes": [
    {
      "name": "OSG_Scene",
      "nodes": [
        0
      ]
    }
  ]
}

