{
  "accessors": [
    {
      "bufferView": 1,
      "componentType": 5126,
      "count": 65532,
      "max": [
        71.602027893066406,
        14.484240531921387,
        88.517166137695312
      ],
      "min": [
        -8.4683265686035156,
        -1.2265126705169678,
        54.309402465820312
      ],
      "type": "VEC3"
    },
    {
      "bufferView": 1,
      "byteOffset": 786384,
      "componentType": 5126,
      "count": 65532,
      "max": [
        0.99998247623443604,
        0.99979722499847412,
        0.9999997615814209
      ],
      "min": [
        -0.99998956918716431,
        -0.99996000528335571,
        -0.99999254941940308
      ],
      "type": "VEC3"
    },
    {
      "bufferView": 2,
      "componentType": 5126,
      "count": 65532,
      "max": [
        0.9686274528503418,
        0.89019608497619629,
        0.94117647409439087,
        1
      ],
      "min": [
        0.098039217293262482,
        0.023529412224888802,
        0.074509806931018829,
        0.87058824300765991
      ],
      "type": "VEC4"
    },
    {
      "bufferView": 0,
      "componentType": 5125,
      "count": 170379,
      "max": [
        65531
      ],
      "min": [
        0
      ],
      "type": "SCALAR"
    },
    {
      "bufferView": 1,
      "byteOffset": 1572768,
      "componentType": 5126,
      "count": 65532,
      "max": [
        71.369514465332031,
        27.544719696044922,
        85.113967895507812
      ],
      "min": [
        -5.0857772827148438,
        -1.7279248237609863,
        59.142627716064453
      ],
      "type": "VEC3"
    },
    {
      "bufferView": 1,
      "byteOffset": 2359152,
      "componentType": 5126,
      "count": 65532,
      "max": [
        0.99994486570358276,
        0.99981820583343506,
        0.99988311529159546
      ],
      "min": [
        -0.99996745586395264,
        -0.99994927644729614,
        -0.99993890523910522
      ],
      "type": "VEC3"
    },
    {
      "bufferView": 2,
      "byteOffset": 1048512,
      "componentType": 5126,
      "count": 65532,
      "max": [
        0.9686274528503418,
        0.89019608497619629,
        0.94117647409439087,
        1
      ],
      "min": [
        0.098039217293262482,
        0.023529412224888802,
        0.074509806931018829,
        1
      ],
      "type": "VEC4"
    },
    {
      "bufferView": 0,
      "byteOffset": 681516,
      "componentType": 5125,
      "count": 171312,
      "max": [
        65531
      ],
      "min": [
        0
      ],
      "type": "SCALAR"
    },
    {
      "bufferView": 1,
      "byteOffset": 3145536,
      "componentType": 5126,
      "count": 41459,
      "max": [
        53.294750213623047,
        22.43134880065918,
        84.592193603515625
      ],
      "min": [
        35.447563171386719,
        4.1188220977783203,
        63.940250396728516
      ],
      "type": "VEC3"
    },
    {
      "bufferView": 1,
      "byteOffset": 3643044,
      "componentType": 5126,
      "count": 41459,
      "max": [
        0.9999663233757019,
        0.99977052211761475,
        0.99999123811721802
      ],
      "min": [
        -0.99996477365493774,
        -0.99998652935028076,
        -0.99997133016586304
      ],
      "type": "VEC3"
    },
    {
      "bufferView": 2,
      "byteOffset": 2097024,
      "componentType": 5126,
      "count": 41459,
      "max": [
        0.9686274528503418,
        0.89019608497619629,
        0.94117647409439087,
        1
      ],
      "min": [
        0.098039217293262482,
        0.023529412224888802,
        0.074509806931018829,
        1
      ],
      "type": "VEC4"
    },
    {
      "bufferView": 0,
      "byteOffset": 1366764,
      "componentType": 5125,
      "count": 107895,
      "max": [
        41458
      ],
      "min": [
        0
      ],
      "type": "SCALAR"
    }
  ],
  "asset": {
    "extras": {
      "author": "idrisb (https://sketchfab.com/idrisb)",
      "license": "CC-BY-4.0 (http://creativecommons.org/licenses/by/4.0/)",
      "source": "https://sketchfab.com/3d-models/treesthrumaya-2a54a838ac5b4812855943c68f60a0cc",
      "title": "TreesThruMaya"
    },
    "generator": "Sketchfab-9.24.0",
    "version": "2.0"
  },
  "bufferViews": [
    {
      "buffer": 0,
      "byteLength": 1798344,
      "byteOffset": 0,
      "name": "floatBufferViews",
      "target": 34963
    },
    {
      "buffer": 0,
      "byteLength": 4140552,
      "byteOffset": 1798344,
      "byteStride": 12,
      "name": "floatBufferViews",
      "target": 34962
    },
    {
      "buffer": 0,
      "byteLength": 2760368,
      "byteOffset": 5938896,
      "byteStride": 16,
      "name": "floatBufferViews",
      "target": 34962
    }
  ],
  "buffers": [
    {
      "byteLength": 8699264,
      "uri": "scene.bin"
    }
  ],
  "extensionsUsed": [
    "KHR_materials_unlit"
  ],
  "materials": [
    {
      "alphaMode": "BLEND",
      "doubleSided": true,
      "extensions": {
        "KHR_materials_unlit": {}
      },
      "name": "vertexColor_shader",
      "pbrMetallicRoughness": {
        "baseColorFactor": [
          1,
          1,
          1,
          0.99885844748858454
        ],
        "metallicFactor": 0,
        "roughnessFactor": 1
      }
    }
  ],
  "meshes": [
    {
      "name": "NewLayer2_vertexColor_shader_0",
      "primitives": [
        {
          "attributes": {
            "COLOR_0": 2,
            "NORMAL": 1,
            "POSITION": 0
          },
          "indices": 3,
          "material": 0,
          "mode": 4
        }
      ]
    },
    {
      "name": "NewLayer2_vertexColor_shader_0",
      "primitives": [
        {
          "attributes": {
            "COLOR_0": 6,
            "NORMAL": 5,
            "POSITION": 4
          },
          "indices": 7,
          "material": 0,
          "mode": 4
        }
      ]
    },
    {
      "name": "NewLayer2_vertexColor_shader_0",
      "primitives": [
        {
          "attributes": {
            "COLOR_0": 10,
            "NORMAL": 9,
            "POSITION": 8
          },
          "indices": 11,
          "material": 0,
          "mode": 4
        }
      ]
    }
  ],
  "nodes": [
    {
      "children": [
        1
      ],
      "name": "RootNode (gltf orientation matrix)",
      "rotation": [
        -0.70710678118654746,
        -0,
        -0,
        0.70710678118654757
      ]
    },
    {
      "children": [
        2
      ],
      "name": "RootNode (model correction matrix)"
    },
    {
      "children": [
        3
      ],
      "matrix": [
        1,
        0,
        0,
        0,
        0,
        0,
        1,
        0,
        0,
        -1,
        0,
        0,
        0,
        0,
        0,
        1
      ],
      "name": "320ece97aaf84caf90d3ca6fe65c7997.fbx"
    },
    {
      "children": [
        4
      ],
      "name": "RootNode"
    },
    {
      "children": [
        5
      ],
      "name": "BakedMesh"
    },
    {
      "children": [
        6
      ],
      "name": "Root"
    },
    {
      "children": [
        7,
        8,
        9
      ],
      "name": "NewLayer2"
    },
    {
      "mesh": 0,
      "name": "NewLayer2_vertexColor_shader_0"
    },
    {
      "mesh": 1,
      "name": "NewLayer2_vertexColor_shader_0"
    },
    {
      "mesh": 2,
      "name": "NewLayer2_vertexColor_shader_0"
    }
  ],
  "scene": 0,
  "scenes": [
    {
      "name": "OSG_Scene",
      "nodes": [
        0
      ]
    }
  ]
}

