{
  "accessors": [
    {
      "bufferView": 1,
      "componentType": 5126,
      "count": 65534,
      "max": [
        52.076091766357422,
        14.48424243927002,
        7.5163779258728027
      ],
      "min": [
        26.751119613647461,
        0.19255183637142181,
        -19.096939086914062
      ],
      "type": "VEC3"
    },
    {
      "bufferView": 1,
      "byteOffset": 786408,
      "componentType": 5126,
      "count": 65534,
      "max": [
        0.99998235702514648,
        0.99992245435714722,
        0.99999815225601196
      ],
      "min": [
        -0.99996256828308105,
        -0.99995952844619751,
        -0.9999924898147583
      ],
      "type": "VEC3"
    },
    {
      "bufferView": 2,
      "componentType": 5126,
      "count": 65534,
      "max": [
        1,
        1,
        1,
        1
      ],
      "min": [
        0,
        0,
        0,
        1
      ],
      "type": "VEC4"
    },
    {
      "bufferView": 0,
      "componentType": 5125,
      "count": 172347,
      "max": [
        65533
      ],
      "min": [
        0
      ],
      "type": "SCALAR"
    },
    {
      "bufferView": 1,
      "byteOffset": 1572816,
      "componentType": 5126,
      "count": 46118,
      "max": [
        53.438392639160156,
        7.796600341796875,
        12.014616012573242
      ],
      "min": [
        25.348381042480469,
        -3.1511800289154053,
        -26.303590774536133
      ],
      "type": "VEC3"
    },
    {
      "bufferView": 1,
      "byteOffset": 2126232,
      "componentType": 5126,
      "count": 46118,
      "max": [
        0.99995577335357666,
        0.9999396800994873,
        0.99992084503173828
      ],
      "min": [
        -0.99996745586395264,
        -0.99998933076858521,
        -0.99992406368255615
      ],
      "type": "VEC3"
    },
    {
      "bufferView": 2,
      "byteOffset": 1048544,
      "componentType": 5126,
      "count": 46118,
      "max": [
        0.92941176891326904,
        0.76862746477127075,
        0.87450981140136719,
        1
      ],
      "min": [
        0.0039215688593685627,
        0,
        0,
        1
      ],
      "type": "VEC4"
    },
    {
      "bufferView": 0,
      "byteOffset": 689388,
      "componentType": 5125,
      "count": 116871,
      "max": [
        46117
      ],
      "min": [
        0
      ],
      "type": "SCALAR"
    }
  ],
  "asset": {
    "extras": {
      "author": "idrisb (https://sketchfab.com/idrisb)",
      "license": "COPYRIGHT TO idrisb",
      "source": "https://sketchfab.com/3d-models/trees-5acc8d3be7dc43ff828a28856510c92b",
      "title": "trees"
    },
    "generator": "Sketchfab-9.24.0",
    "version": "2.0"
  },
  "bufferViews": [
    {
      "buffer": 0,
      "byteLength": 1156872,
      "byteOffset": 0,
      "name": "floatBufferViews",
      "target": 34963
    },
    {
      "buffer": 0,
      "byteLength": 2679648,
      "byteOffset": 1156872,
      "byteStride": 12,
      "name": "floatBufferViews",
      "target": 34962
    },
    {
      "buffer": 0,
      "byteLength": 1786432,
      "byteOffset": 3836520,
      "byteStride": 16,
      "name": "floatBufferViews",
      "target": 34962
    }
  ],
  "buffers": [
    {
      "byteLength": 5622952,
      "uri": "scene.bin"
    }
  ],
  "extensionsUsed": [
    "KHR_materials_unlit"
  ],
  "materials": [
    {
      "doubleSided": true,
      "extensions": {
        "KHR_materials_unlit": {}
      },
      "name": "vertexColor_shader",
      "pbrMetallicRoughness": {
        "baseColorFactor": [
          1,
          1,
          1,
          1
        ],
        "metallicFactor": 0,
        "roughnessFactor": 1
      }
    }
  ],
  "meshes": [
    {
      "name": "Trees_0000_vertexColor_shader_0",
      "primitives": [
        {
          "attributes": {
            "COLOR_0": 2,
            "NORMAL": 1,
            "POSITION": 0
          },
          "indices": 3,
          "material": 0,
          "mode": 4
        }
      ]
    },
    {
      "name": "Trees_0000_vertexColor_shader_0",
      "primitives": [
        {
          "attributes": {
            "COLOR_0": 6,
            "NORMAL": 5,
            "POSITION": 4
          },
          "indices": 7,
          "material": 0,
          "mode": 4
        }
      ]
    }
  ],
  "nodes": [
    {
      "children": [
        1
      ],
      "name": "RootNode (gltf orientation matrix)",
      "rotation": [
        -0.70710678118654746,
        -0,
        -0,
        0.70710678118654757
      ]
    },
    {
      "children": [
        2
      ],
      "name": "RootNode (model correction matrix)"
    },
    {
      "children": [
        3
      ],
      "matrix": [
        1,
        0,
        0,
        0,
        0,
        0,
        1,
        0,
        0,
        -1,
        0,
        0,
        0,
        0,
        0,
        1
      ],
      "name": "a99c4934db8b4632ae19d312cb53979e.fbx"
    },
    {
      "children": [
        4
      ],
      "name": "RootNode"
    },
    {
      "children": [
        5
      ],
      "name": "BakedMesh"
    },
    {
      "children": [
        6
      ],
      "name": "Root"
    },
    {
      "children": [
        7
      ],
      "name": "Trees"
    },
    {
      "children": [
        8,
        9
      ],
      "name": "Trees_0000"
    },
    {
      "mesh": 0,
      "name": "Trees_0000_vertexColor_shader_0"
    },
    {
      "mesh": 1,
      "name": "Trees_0000_vertexColor_shader_0"
    }
  ],
  "scene": 0,
  "scenes": [
    {
      "name": "OSG_Scene",
      "nodes": [
        0
      ]
    }
  ]
}

