{
  "accessors": [
    {
      "bufferView": 1,
      "componentType": 5126,
      "count": 65532,
      "max": [
        52.076091766357422,
        13.477437973022461,
        7.2445626258850098
      ],
      "min": [
        26.934284210205078,
        -0.48630794882774353,
        -18.851348876953125
      ],
      "type": "VEC3"
    },
    {
      "bufferView": 1,
      "byteOffset": 786384,
      "componentType": 5126,
      "count": 65532,
      "max": [
        0.99998235702514648,
        0.99992245435714722,
        0.99999809265136719
      ],
      "min": [
        -0.99996256828308105,
        -0.99996465444564819,
        -0.9999924898147583
      ],
      "type": "VEC3"
    },
    {
      "bufferView": 2,
      "componentType": 5126,
      "count": 65532,
      "max": [
        1,
        1,
        1,
        1
      ],
      "min": [
        0,
        0,
        0,
        1
      ],
      "type": "VEC4"
    },
    {
      "bufferView": 0,
      "componentType": 5125,
      "count": 179388,
      "max": [
        65531
      ],
      "min": [
        0
      ],
      "type": "SCALAR"
    },
    {
      "bufferView": 1,
      "byteOffset": 1572768,
      "componentType": 5126,
      "count": 6770,
      "max": [
        41.213199615478516,
        4.2247862815856934,
        6.9327893257141113
      ],
      "min": [
        32.840564727783203,
        1.7808023691177368,
        -9.8987960815429688
      ],
      "type": "VEC3"
    },
    {
      "bufferView": 1,
      "byteOffset": 1654008,
      "componentType": 5126,
      "count": 6770,
      "max": [
        0.99974048137664795,
        0.99996858835220337,
        0.99972438812255859
      ],
      "min": [
        -0.99951565265655518,
        -0.99935406446456909,
        -0.99988865852355957
      ],
      "type": "VEC3"
    },
    {
      "bufferView": 2,
      "byteOffset": 1048512,
      "componentType": 5126,
      "count": 6770,
      "max": [
        1,
        1,
        1,
        1
      ],
      "min": [
        0,
        0,
        0,
        1
      ],
      "type": "VEC4"
    },
    {
      "bufferView": 0,
      "byteOffset": 717552,
      "componentType": 5125,
      "count": 19512,
      "max": [
        6769
      ],
      "min": [
        0
      ],
      "type": "SCALAR"
    },
    {
      "bufferView": 1,
      "byteOffset": 1735248,
      "componentType": 5126,
      "count": 49088,
      "max": [
        53.438392639160156,
        13.80538272857666,
        12.014616012573242
      ],
      "min": [
        25.348381042480469,
        -3.8300397396087646,
        -26.303590774536133
      ],
      "type": "VEC3"
    },
    {
      "bufferView": 1,
      "byteOffset": 2324304,
      "componentType": 5126,
      "count": 49088,
      "max": [
        0.99998527765274048,
        0.99994069337844849,
        0.99993252754211426
      ],
      "min": [
        -0.99999088048934937,
        -0.99999350309371948,
        -0.99992406368255615
      ],
      "type": "VEC3"
    },
    {
      "bufferView": 2,
      "byteOffset": 1156832,
      "componentType": 5126,
      "count": 49088,
      "max": [
        1,
        1,
        1,
        1
      ],
      "min": [
        0.0039215688593685627,
        0,
        0,
        1
      ],
      "type": "VEC4"
    },
    {
      "bufferView": 0,
      "byteOffset": 795600,
      "componentType": 5125,
      "count": 121554,
      "max": [
        49087
      ],
      "min": [
        0
      ],
      "type": "SCALAR"
    }
  ],
  "asset": {
    "extras": {
      "author": "idrisb (https://sketchfab.com/idrisb)",
      "license": "COPYRIGHT TO idrisb",
      "source": "https://sketchfab.com/3d-models/trees-121940c2cd124901a15e9a8ba0884a1f",
      "title": "Trees"
    },
    "generator": "Sketchfab-10.10.1-rc1",
    "version": "2.0"
  },
  "bufferViews": [
    {
      "buffer": 0,
      "byteLength": 1281816,
      "byteOffset": 0,
      "name": "floatBufferViews",
      "target": 34963
    },
    {
      "buffer": 0,
      "byteLength": 2913360,
      "byteOffset": 1281816,
      "byteStride": 12,
      "name": "floatBufferViews",
      "target": 34962
    },
    {
      "buffer": 0,
      "byteLength": 1942240,
      "byteOffset": 4195176,
      "byteStride": 16,
      "name": "floatBufferViews",
      "target": 34962
    }
  ],
  "buffers": [
    {
      "byteLength": 6137416,
      "uri": "scene.bin"
    }
  ],
  "extensionsUsed": [
    "KHR_materials_unlit"
  ],
  "materials": [
    {
      "doubleSided": true,
      "emissiveFactor": [
        0,
        0,
        0
      ],
      "extensions": {
        "KHR_materials_unlit": {}
      },
      "name": "Single_Sided_Material",
      "pbrMetallicRoughness": {
        "baseColorFactor": [
          0.80000000000000004,
          0.80000000000000004,
          0.80000000000000004,
          1
        ],
        "metallicFactor": 0,
        "roughnessFactor": 1
      }
    },
    {
      "doubleSided": true,
      "emissiveFactor": [
        0,
        0,
        0
      ],
      "extensions": {
        "KHR_materials_unlit": {}
      },
      "name": "Double_Sided_Material",
      "pbrMetallicRoughness": {
        "baseColorFactor": [
          0.80000000000000004,
          0.80000000000000004,
          0.80000000000000004,
          1
        ],
        "metallicFactor": 0,
        "roughnessFactor": 1
      }
    }
  ],
  "meshes": [
    {
      "name": "Trees_Single Sided Material_0",
      "primitives": [
        {
          "attributes": {
            "COLOR_0": 2,
            "NORMAL": 1,
            "POSITION": 0
          },
          "indices": 3,
          "material": 0,
          "mode": 4
        }
      ]
    },
    {
      "name": "Trees_Single Sided Material_0",
      "primitives": [
        {
          "attributes": {
            "COLOR_0": 6,
            "NORMAL": 5,
            "POSITION": 4
          },
          "indices": 7,
          "material": 0,
          "mode": 4
        }
      ]
    },
    {
      "name": "Trees_Double Sided Material_0",
      "primitives": [
        {
          "attributes": {
            "COLOR_0": 10,
            "NORMAL": 9,
            "POSITION": 8
          },
          "indices": 11,
          "material": 1,
          "mode": 4
        }
      ]
    }
  ],
  "nodes": [
    {
      "children": [
        1
      ],
      "name": "RootNode (gltf orientation matrix)",
      "rotation": [
        -0.70710678118654746,
        -0,
        -0,
        0.70710678118654757
      ]
    },
    {
      "children": [
        2
      ],
      "name": "RootNode (model correction matrix)"
    },
    {
      "children": [
        3
      ],
      "matrix": [
        1,
        0,
        0,
        0,
        0,
        0,
        1,
        0,
        0,
        -1,
        0,
        0,
        0,
        0,
        0,
        1
      ],
      "name": "d22f3ce42f3e49df9fec8168b53e0950.fbx"
    },
    {
      "children": [
        4
      ],
      "name": "RootNode"
    },
    {
      "children": [
        5
      ],
      "name": "BakedMesh"
    },
    {
      "children": [
        6
      ],
      "name": "Root"
    },
    {
      "children": [
        7,
        8,
        9
      ],
      "name": "Trees"
    },
    {
      "mesh": 0,
      "name": "Trees_Single Sided Material_0"
    },
    {
      "mesh": 1,
      "name": "Trees_Single Sided Material_0"
    },
    {
      "mesh": 2,
      "name": "Trees_Double Sided Material_0"
    }
  ],
  "scene": 0,
  "scenes": [
    {
      "name": "OSG_Scene",
      "nodes": [
        0
      ]
    }
  ]
}

