{
  "accessors": [
    {
      "bufferView": 1,
      "componentType": 5126,
      "count": 22115,
      "max": [
        0.61726212501525879,
        5.2252421379089355,
        -7.007326602935791
      ],
      "min": [
        -1.6237068176269531,
        1.348572850227356,
        -9.9788131713867188
      ],
      "type": "VEC3"
    },
    {
      "bufferView": 1,
      "byteOffset": 265380,
      "componentType": 5126,
      "count": 22115,
      "max": [
        0.99991530179977417,
        0.99991655349731445,
        0.99999898672103882
      ],
      "min": [
        -0.99995177984237671,
        -0.99988704919815063,
        -0.99991488456726074
      ],
      "type": "VEC3"
    },
    {
      "bufferView": 2,
      "componentType": 5126,
      "count": 22115,
      "max": [
        0.9686274528503418,
        0.89019608497619629,
        0.94117647409439087,
        1
      ],
      "min": [
        0.098039217293262482,
        0.023529412224888802,
        0.074509806931018829,
        1
      ],
      "type": "VEC4"
    },
    {
      "bufferView": 0,
      "componentType": 5125,
      "count": 57390,
      "max": [
        22114
      ],
      "min": [
        0
      ],
      "type": "SCALAR"
    },
    {
      "bufferView": 3,
      "componentType": 5126,
      "count": 3,
      "max": [
        0.16667667031288147
      ],
      "min": [
        0
      ],
      "type": "SCALAR"
    },
    {
      "bufferView": 4,
      "componentType": 5126,
      "count": 3,
      "max": [
        1,
        1,
        1
      ],
      "min": [
        1.000000013351432e-10,
        1.000000013351432e-10,
        1.000000013351432e-10
      ],
      "type": "VEC3"
    }
  ],
  "animations": [
    {
      "channels": [
        {
          "sampler": 0,
          "target": {
            "node": 8,
            "path": "scale"
          }
        }
      ],
      "name": "Take 001",
      "samplers": [
        {
          "input": 4,
          "interpolation": "LINEAR",
          "output": 5
        }
      ]
    }
  ],
  "asset": {
    "extras": {
      "author": "idrisb (https://sketchfab.com/idrisb)",
      "license": "CC-BY-4.0 (http://creativecommons.org/licenses/by/4.0/)",
      "source": "https://sketchfab.com/3d-models/tree1-6fc2147e0e774d10a2cb1cbcedb5e635",
      "title": "tree1"
    },
    "generator": "Sketchfab-9.22.0",
    "version": "2.0"
  },
  "bufferViews": [
    {
      "buffer": 0,
      "byteLength": 229560,
      "byteOffset": 0,
      "name": "floatBufferViews",
      "target": 34963
    },
    {
      "buffer": 0,
      "byteLength": 530760,
      "byteOffset": 229560,
      "byteStride": 12,
      "name": "floatBufferViews",
      "target": 34962
    },
    {
      "buffer": 0,
      "byteLength": 353840,
      "byteOffset": 760320,
      "byteStride": 16,
      "name": "floatBufferViews",
      "target": 34962
    },
    {
      "buffer": 0,
      "byteLength": 12,
      "byteOffset": 1114160,
      "name": "floatBufferViews"
    },
    {
      "buffer": 0,
      "byteLength": 36,
      "byteOffset": 1114172,
      "byteStride": 12,
      "name": "floatBufferViews"
    }
  ],
  "buffers": [
    {
      "byteLength": 1114208,
      "uri": "scene.bin"
    }
  ],
  "extensionsUsed": [
    "KHR_materials_unlit"
  ],
  "materials": [
    {
      "doubleSided": true,
      "extensions": {
        "KHR_materials_unlit": {}
      },
      "name": "vertexColor_shader",
      "pbrMetallicRoughness": {
        "baseColorFactor": [
          1,
          1,
          1,
          1
        ],
        "metallicFactor": 0,
        "roughnessFactor": 1
      }
    }
  ],
  "meshes": [
    {
      "name": "LifeTree_0000_vertexColor_shader_0",
      "primitives": [
        {
          "attributes": {
            "COLOR_0": 2,
            "NORMAL": 1,
            "POSITION": 0
          },
          "indices": 3,
          "material": 0,
          "mode": 4
        }
      ]
    }
  ],
  "nodes": [
    {
      "children": [
        1
      ],
      "name": "RootNode (gltf orientation matrix)",
      "rotation": [
        -0.70710678118654746,
        -0,
        -0,
        0.70710678118654757
      ]
    },
    {
      "children": [
        2
      ],
      "name": "RootNode (model correction matrix)"
    },
    {
      "children": [
        3
      ],
      "matrix": [
        1,
        0,
        0,
        0,
        0,
        0,
        1,
        0,
        0,
        -1,
        0,
        0,
        0,
        0,
        0,
        1
      ],
      "name": "b4aca02dfeb64ac4941887a1776c97d3.fbx"
    },
    {
      "children": [
        4
      ],
      "name": ""
    },
    {
      "children": [
        5
      ],
      "name": "RootNode"
    },
    {
      "children": [
        6
      ],
      "name": "BakedMesh"
    },
    {
      "children": [
        7
      ],
      "name": "Root"
    },
    {
      "children": [
        8
      ],
      "name": "LifeTree",
      "rotation": [
        0.00069310580147430301,
        -0.20671822130680084,
        0.022320631891489029,
        0.97814565896987915
      ],
      "scale": [
        4.3997011184692383,
        4.3997011184692383,
        4.3997011184692383
      ],
      "translation": [
        29.882663726806641,
        -5.5918469429016113,
        107.35353088378906
      ]
    },
    {
      "children": [
        9
      ],
      "name": "LifeTree_0000",
      "rotation": [
        -4.3368086899420177e-19,
        5.5511151231257827e-17,
        -1.951563910473908e-18,
        1
      ]
    },
    {
      "mesh": 0,
      "name": "LifeTree_0000_vertexColor_shader_0"
    }
  ],
  "scene": 0,
  "scenes": [
    {
      "name": "OSG_Scene",
      "nodes": [
        0
      ]
    }
  ]
}

