{
  "accessors": [
    {
      "bufferView": 1,
      "componentType": 5126,
      "count": 65533,
      "max": [
        63.343868255615234,
        48.844451904296875,
        131.65400695800781
      ],
      "min": [
        -22.761524200439453,
        -18.052036285400391,
        24.895200729370117
      ],
      "type": "VEC3"
    },
    {
      "bufferView": 1,
      "byteOffset": 786396,
      "componentType": 5126,
      "count": 65533,
      "max": [
        0.99975782632827759,
        0.9999995231628418,
        0.99989718198776245
      ],
      "min": [
        -0.99998360872268677,
        -0.99999630451202393,
        -0.99994492530822754
      ],
      "type": "VEC3"
    },
    {
      "bufferView": 2,
      "componentType": 5126,
      "count": 65533,
      "max": [
        0.96470588445663452,
        0.84705883264541626,
        1,
        1
      ],
      "min": [
        0.15686275064945221,
        0,
        0.066666670143604279,
        1
      ],
      "type": "VEC4"
    },
    {
      "bufferView": 0,
      "componentType": 5125,
      "count": 257823,
      "max": [
        65532
      ],
      "min": [
        0
      ],
      "type": "SCALAR"
    },
    {
      "bufferView": 1,
      "byteOffset": 1572792,
      "componentType": 5126,
      "count": 65532,
      "max": [
        51.248950958251953,
        13.469973564147949,
        108.45322418212891
      ],
      "min": [
        -33.48834228515625,
        -3.5731587409973145,
        47.577381134033203
      ],
      "type": "VEC3"
    },
    {
      "bufferView": 1,
      "byteOffset": 2359176,
      "componentType": 5126,
      "count": 65532,
      "max": [
        1,
        1,
        1
      ],
      "min": [
        -1,
        -1,
        -1
      ],
      "type": "VEC3"
    },
    {
      "bufferView": 2,
      "byteOffset": 1048528,
      "componentType": 5126,
      "count": 65532,
      "max": [
        1,
        1,
        1,
        1
      ],
      "min": [
        0,
        0,
        0,
        1
      ],
      "type": "VEC4"
    },
    {
      "bufferView": 0,
      "byteOffset": 1031292,
      "componentType": 5125,
      "count": 193389,
      "max": [
        65531
      ],
      "min": [
        0
      ],
      "type": "SCALAR"
    },
    {
      "bufferView": 1,
      "byteOffset": 3145560,
      "componentType": 5126,
      "count": 65532,
      "max": [
        35.275177001953125,
        20.819726943969727,
        102.70159912109375
      ],
      "min": [
        -2.5848522186279297,
        0.072261005640029907,
        51.952701568603516
      ],
      "type": "VEC3"
    },
    {
      "bufferView": 1,
      "byteOffset": 3931944,
      "componentType": 5126,
      "count": 65532,
      "max": [
        0.99999773502349854,
        0.9998353123664856,
        0.99998635053634644
      ],
      "min": [
        -0.99998688697814941,
        -0.99993991851806641,
        -0.99991989135742188
      ],
      "type": "VEC3"
    },
    {
      "bufferView": 2,
      "byteOffset": 2097040,
      "componentType": 5126,
      "count": 65532,
      "max": [
        0.96078431606292725,
        0.89019608497619629,
        0.94117647409439087,
        1
      ],
      "min": [
        0.12156862765550613,
        0.043137256056070328,
        0.086274512112140656,
        1
      ],
      "type": "VEC4"
    },
    {
      "bufferView": 0,
      "byteOffset": 1804848,
      "componentType": 5125,
      "count": 174225,
      "max": [
        65531
      ],
      "min": [
        0
      ],
      "type": "SCALAR"
    },
    {
      "bufferView": 1,
      "byteOffset": 4718328,
      "componentType": 5126,
      "count": 65532,
      "max": [
        16.81287956237793,
        14.365730285644531,
        96.950973510742188
      ],
      "min": [
        -3.0878159999847412,
        3.4043595790863037,
        51.625164031982422
      ],
      "type": "VEC3"
    },
    {
      "bufferView": 1,
      "byteOffset": 5504712,
      "componentType": 5126,
      "count": 65532,
      "max": [
        0.99992477893829346,
        0.99991399049758911,
        0.99999004602432251
      ],
      "min": [
        -0.99997198581695557,
        -0.99994295835494995,
        -0.99999499320983887
      ],
      "type": "VEC3"
    },
    {
      "bufferView": 2,
      "byteOffset": 3145552,
      "componentType": 5126,
      "count": 65532,
      "max": [
        0.9686274528503418,
        0.89019608497619629,
        0.94117647409439087,
        1
      ],
      "min": [
        0.098039217293262482,
        0.023529412224888802,
        0.074509806931018829,
        1
      ],
      "type": "VEC4"
    },
    {
      "bufferView": 0,
      "byteOffset": 2501748,
      "componentType": 5125,
      "count": 171174,
      "max": [
        65531
      ],
      "min": [
        0
      ],
      "type": "SCALAR"
    },
    {
      "bufferView": 1,
      "byteOffset": 6291096,
      "componentType": 5126,
      "count": 65532,
      "max": [
        38.793300628662109,
        17.195541381835938,
        88.640068054199219
      ],
      "min": [
        2.431898832321167,
        4.4410629272460938,
        53.423439025878906
      ],
      "type": "VEC3"
    },
    {
      "bufferView": 1,
      "byteOffset": 7077480,
      "componentType": 5126,
      "count": 65532,
      "max": [
        0.99999135732650757,
        0.99987137317657471,
        0.99998533725738525
      ],
      "min": [
        -0.99996113777160645,
        -0.99996578693389893,
        -0.99997156858444214
      ],
      "type": "VEC3"
    },
    {
      "bufferView": 2,
      "byteOffset": 4194064,
      "componentType": 5126,
      "count": 65532,
      "max": [
        0.9686274528503418,
        0.89019608497619629,
        0.94117647409439087,
        1
      ],
      "min": [
        0.098039217293262482,
        0.023529412224888802,
        0.074509806931018829,
        1
      ],
      "type": "VEC4"
    },
    {
      "bufferView": 0,
      "byteOffset": 3186444,
      "componentType": 5125,
      "count": 170553,
      "max": [
        65531
      ],
      "min": [
        0
      ],
      "type": "SCALAR"
    },
    {
      "bufferView": 1,
      "byteOffset": 7863864,
      "componentType": 5126,
      "count": 40275,
      "max": [
        39.386600494384766,
        14.947314262390137,
        98.239479064941406
      ],
      "min": [
        -0.93931734561920166,
        0.76939982175827026,
        46.990909576416016
      ],
      "type": "VEC3"
    },
    {
      "bufferView": 1,
      "byteOffset": 8347164,
      "componentType": 5126,
      "count": 40275,
      "max": [
        0.99996638298034668,
        0.99984198808670044,
        0.99999129772186279
      ],
      "min": [
        -0.99996495246887207,
        -0.99998641014099121,
        -0.99994188547134399
      ],
      "type": "VEC3"
    },
    {
      "bufferView": 2,
      "byteOffset": 5242576,
      "componentType": 5126,
      "count": 40275,
      "max": [
        0.9686274528503418,
        0.90980392694473267,
        0.94117647409439087,
        1
      ],
      "min": [
        0,
        0,
        0,
        1
      ],
      "type": "VEC4"
    },
    {
      "bufferView": 0,
      "byteOffset": 3868656,
      "componentType": 5125,
      "count": 107079,
      "max": [
        40274
      ],
      "min": [
        0
      ],
      "type": "SCALAR"
    }
  ],
  "asset": {
    "extras": {
      "author": "idrisb (https://sketchfab.com/idrisb)",
      "license": "COPYRIGHT TO idrisb",
      "source": "https://sketchfab.com/3d-models/island-dcca88c234de4e3e99aa0fefcf0ac8c4",
      "title": "island"
    },
    "generator": "Sketchfab-9.24.0",
    "version": "2.0"
  },
  "bufferViews": [
    {
      "buffer": 0,
      "byteLength": 4296972,
      "byteOffset": 0,
      "name": "floatBufferViews",
      "target": 34963
    },
    {
      "buffer": 0,
      "byteLength": 8830464,
      "byteOffset": 4296972,
      "byteStride": 12,
      "name": "floatBufferViews",
      "target": 34962
    },
    {
      "buffer": 0,
      "byteLength": 5886976,
      "byteOffset": 13127436,
      "byteStride": 16,
      "name": "floatBufferViews",
      "target": 34962
    }
  ],
  "buffers": [
    {
      "byteLength": 19014412,
      "uri": "scene.bin"
    }
  ],
  "extensionsUsed": [
    "KHR_materials_unlit"
  ],
  "materials": [
    {
      "doubleSided": true,
      "extensions": {
        "KHR_materials_unlit": {}
      },
      "name": "vertexColor_shader",
      "pbrMetallicRoughness": {
        "baseColorFactor": [
          1,
          1,
          1,
          1
        ],
        "metallicFactor": 0,
        "roughnessFactor": 1
      }
    }
  ],
  "meshes": [
    {
      "name": "Island2_vertexColor_shader_0",
      "primitives": [
        {
          "attributes": {
            "COLOR_0": 2,
            "NORMAL": 1,
            "POSITION": 0
          },
          "indices": 3,
          "material": 0,
          "mode": 4
        }
      ]
    },
    {
      "name": "Island2_vertexColor_shader_0",
      "primitives": [
        {
          "attributes": {
            "COLOR_0": 6,
            "NORMAL": 5,
            "POSITION": 4
          },
          "indices": 7,
          "material": 0,
          "mode": 4
        }
      ]
    },
    {
      "name": "Island2_vertexColor_shader_0",
      "primitives": [
        {
          "attributes": {
            "COLOR_0": 10,
            "NORMAL": 9,
            "POSITION": 8
          },
          "indices": 11,
          "material": 0,
          "mode": 4
        }
      ]
    },
    {
      "name": "Island2_vertexColor_shader_0",
      "primitives": [
        {
          "attributes": {
            "COLOR_0": 14,
            "NORMAL": 13,
            "POSITION": 12
          },
          "indices": 15,
          "material": 0,
          "mode": 4
        }
      ]
    },
    {
      "name": "Island2_vertexColor_shader_0",
      "primitives": [
        {
          "attributes": {
            "COLOR_0": 18,
            "NORMAL": 17,
            "POSITION": 16
          },
          "indices": 19,
          "material": 0,
          "mode": 4
        }
      ]
    },
    {
      "name": "Island2_vertexColor_shader_0",
      "primitives": [
        {
          "attributes": {
            "COLOR_0": 22,
            "NORMAL": 21,
            "POSITION": 20
          },
          "indices": 23,
          "material": 0,
          "mode": 4
        }
      ]
    }
  ],
  "nodes": [
    {
      "children": [
        1
      ],
      "name": "RootNode (gltf orientation matrix)",
      "rotation": [
        -0.70710678118654746,
        -0,
        -0,
        0.70710678118654757
      ]
    },
    {
      "children": [
        2
      ],
      "name": "RootNode (model correction matrix)"
    },
    {
      "children": [
        3
      ],
      "matrix": [
        1,
        0,
        0,
        0,
        0,
        0,
        1,
        0,
        0,
        -1,
        0,
        0,
        0,
        0,
        0,
        1
      ],
      "name": "9f81864eb7424675846c30eb59fb7211.fbx"
    },
    {
      "children": [
        4
      ],
      "name": "RootNode"
    },
    {
      "children": [
        5
      ],
      "name": "BakedMesh"
    },
    {
      "children": [
        6
      ],
      "name": "Root"
    },
    {
      "children": [
        7,
        8,
        9,
        10,
        11,
        12
      ],
      "matrix": [
        1.4109021425247192,
        0,
        0,
        0,
        0,
        1.4109021425247192,
        0,
        0,
        0,
        0,
        1.4109021425247192,
        0,
        -24.277624130249023,
        -1.8298780918121338,
        -108.34429931640625,
        1
      ],
      "name": "Island2"
    },
    {
      "mesh": 0,
      "name": "Island2_vertexColor_shader_0"
    },
    {
      "mesh": 1,
      "name": "Island2_vertexColor_shader_0"
    },
    {
      "mesh": 2,
      "name": "Island2_vertexColor_shader_0"
    },
    {
      "mesh": 3,
      "name": "Island2_vertexColor_shader_0"
    },
    {
      "mesh": 4,
      "name": "Island2_vertexColor_shader_0"
    },
    {
      "mesh": 5,
      "name": "Island2_vertexColor_shader_0"
    }
  ],
  "scene": 0,
  "scenes": [
    {
      "name": "OSG_Scene",
      "nodes": [
        0
      ]
    }
  ]
}

