{
  "accessors": [
    {
      "bufferView": 1,
      "componentType": 5126,
      "count": 65532,
      "max": [
        51.903526306152344,
        26.082918167114258,
        48.447803497314453
      ],
      "min": [
        -65.449066162109375,
        -24.834156036376953,
        -74.002670288085938
      ],
      "type": "VEC3"
    },
    {
      "bufferView": 1,
      "byteOffset": 786384,
      "componentType": 5126,
      "count": 65532,
      "max": [
        0.99990910291671753,
        0.99998575448989868,
        0.99995976686477661
      ],
      "min": [
        -0.99983710050582886,
        -0.9999958872795105,
        -0.99994492530822754
      ],
      "type": "VEC3"
    },
    {
      "bufferView": 2,
      "componentType": 5126,
      "count": 65532,
      "max": [
        1,
        1,
        1,
        1
      ],
      "min": [
        0,
        0,
        0,
        1
      ],
      "type": "VEC4"
    },
    {
      "bufferView": 0,
      "componentType": 5125,
      "count": 222987,
      "max": [
        65531
      ],
      "min": [
        0
      ],
      "type": "SCALAR"
    },
    {
      "bufferView": 1,
      "byteOffset": 1572768,
      "componentType": 5126,
      "count": 30723,
      "max": [
        65.718894958496094,
        22.633037567138672,
        48.102787017822266
      ],
      "min": [
        -71.526397705078125,
        -8.7419891357421875,
        -39.051277160644531
      ],
      "type": "VEC3"
    },
    {
      "bufferView": 1,
      "byteOffset": 1941444,
      "componentType": 5126,
      "count": 30723,
      "max": [
        1,
        1,
        1
      ],
      "min": [
        -1,
        -1,
        -1
      ],
      "type": "VEC3"
    },
    {
      "bufferView": 2,
      "byteOffset": 1048512,
      "componentType": 5126,
      "count": 30723,
      "max": [
        1,
        1,
        1,
        1
      ],
      "min": [
        0,
        0,
        0,
        1
      ],
      "type": "VEC4"
    },
    {
      "bufferView": 0,
      "byteOffset": 891948,
      "componentType": 5125,
      "count": 96489,
      "max": [
        30722
      ],
      "min": [
        0
      ],
      "type": "SCALAR"
    },
    {
      "bufferView": 1,
      "byteOffset": 2310120,
      "componentType": 5126,
      "count": 17042,
      "max": [
        47.977252960205078,
        27.544719696044922,
        48.086231231689453
      ],
      "min": [
        -52.113059997558594,
        -6.7667322158813477,
        -59.362880706787109
      ],
      "type": "VEC3"
    },
    {
      "bufferView": 1,
      "byteOffset": 2514624,
      "componentType": 5126,
      "count": 17042,
      "max": [
        0.99803543090820312,
        0.9999997615814209,
        0.99951338768005371
      ],
      "min": [
        -0.99995827674865723,
        -0.99999862909317017,
        -1
      ],
      "type": "VEC3"
    },
    {
      "bufferView": 2,
      "byteOffset": 1540080,
      "componentType": 5126,
      "count": 17042,
      "max": [
        1,
        1,
        1,
        1
      ],
      "min": [
        0,
        0,
        0,
        1
      ],
      "type": "VEC4"
    },
    {
      "bufferView": 0,
      "byteOffset": 1277904,
      "componentType": 5125,
      "count": 44136,
      "max": [
        17041
      ],
      "min": [
        0
      ],
      "type": "SCALAR"
    },
    {
      "bufferView": 1,
      "byteOffset": 2719128,
      "componentType": 5126,
      "count": 65532,
      "max": [
        26.437580108642578,
        20.133674621582031,
        37.038375854492188
      ],
      "min": [
        -27.058063507080078,
        -1.7279248237609863,
        -35.971046447753906
      ],
      "type": "VEC3"
    },
    {
      "bufferView": 1,
      "byteOffset": 3505512,
      "componentType": 5126,
      "count": 65532,
      "max": [
        0.99997133016586304,
        0.99936932325363159,
        0.99997240304946899
      ],
      "min": [
        -0.99995642900466919,
        -0.99991297721862793,
        -0.9999663233757019
      ],
      "type": "VEC3"
    },
    {
      "bufferView": 2,
      "byteOffset": 1812752,
      "componentType": 5126,
      "count": 65532,
      "max": [
        0.91372549533843994,
        0.7607843279838562,
        0.87450981140136719,
        1
      ],
      "min": [
        0.0039215688593685627,
        0,
        0,
        1
      ],
      "type": "VEC4"
    },
    {
      "bufferView": 0,
      "byteOffset": 1454448,
      "componentType": 5125,
      "count": 163884,
      "max": [
        65531
      ],
      "min": [
        0
      ],
      "type": "SCALAR"
    },
    {
      "bufferView": 1,
      "byteOffset": 4291896,
      "componentType": 5126,
      "count": 24477,
      "max": [
        7.3774561882019043,
        18.438762664794922,
        30.991647720336914
      ],
      "min": [
        -28.634231567382812,
        4.0147027969360352,
        -30.932662963867188
      ],
      "type": "VEC3"
    },
    {
      "bufferView": 1,
      "byteOffset": 4585620,
      "componentType": 5126,
      "count": 24477,
      "max": [
        0.99998319149017334,
        0.99994039535522461,
        0.99995839595794678
      ],
      "min": [
        -0.99995851516723633,
        -0.99988657236099243,
        -0.99999541044235229
      ],
      "type": "VEC3"
    },
    {
      "bufferView": 2,
      "byteOffset": 2861264,
      "componentType": 5126,
      "count": 24477,
      "max": [
        0.91372549533843994,
        0.7607843279838562,
        0.87450981140136719,
        1
      ],
      "min": [
        0.0039215688593685627,
        0,
        0,
        1
      ],
      "type": "VEC4"
    },
    {
      "bufferView": 0,
      "byteOffset": 2109984,
      "componentType": 5125,
      "count": 61263,
      "max": [
        24476
      ],
      "min": [
        0
      ],
      "type": "SCALAR"
    },
    {
      "bufferView": 1,
      "byteOffset": 4879344,
      "componentType": 5126,
      "count": 65532,
      "max": [
        22.489200592041016,
        18.187196731567383,
        36.935764312744141
      ],
      "min": [
        -28.447500228881836,
        -1.0485525131225586,
        -35.748199462890625
      ],
      "type": "VEC3"
    },
    {
      "bufferView": 1,
      "byteOffset": 5665728,
      "componentType": 5126,
      "count": 65532,
      "max": [
        0.99999761581420898,
        0.99995177984237671,
        0.99995505809783936
      ],
      "min": [
        -0.99997711181640625,
        -0.99994927644729614,
        -0.99999505281448364
      ],
      "type": "VEC3"
    },
    {
      "bufferView": 2,
      "byteOffset": 3252896,
      "componentType": 5126,
      "count": 65532,
      "max": [
        0.92941176891326904,
        0.76862746477127075,
        0.87450981140136719,
        1
      ],
      "min": [
        0.18431372940540314,
        0.047058824449777603,
        0.10588235408067703,
        1
      ],
      "type": "VEC4"
    },
    {
      "bufferView": 0,
      "byteOffset": 2355036,
      "componentType": 5125,
      "count": 185298,
      "max": [
        65531
      ],
      "min": [
        0
      ],
      "type": "SCALAR"
    },
    {
      "bufferView": 1,
      "byteOffset": 6452112,
      "componentType": 5126,
      "count": 61631,
      "max": [
        26.360305786132812,
        19.946563720703125,
        6.4280071258544922
      ],
      "min": [
        -27.611549377441406,
        -0.54029226303100586,
        -36.642925262451172
      ],
      "type": "VEC3"
    },
    {
      "bufferView": 1,
      "byteOffset": 7191684,
      "componentType": 5126,
      "count": 61631,
      "max": [
        0.99999761581420898,
        0.99987947940826416,
        0.99999135732650757
      ],
      "min": [
        -0.99998682737350464,
        -0.99996703863143921,
        -0.99992245435714722
      ],
      "type": "VEC3"
    },
    {
      "bufferView": 2,
      "byteOffset": 4301408,
      "componentType": 5126,
      "count": 61631,
      "max": [
        0.92941176891326904,
        0.76862746477127075,
        0.87450981140136719,
        1
      ],
      "min": [
        0.12549020349979401,
        0.047058824449777603,
        0.098039217293262482,
        1
      ],
      "type": "VEC4"
    },
    {
      "bufferView": 0,
      "byteOffset": 3096228,
      "componentType": 5125,
      "count": 174684,
      "max": [
        61630
      ],
      "min": [
        0
      ],
      "type": "SCALAR"
    }
  ],
  "asset": {
    "extras": {
      "author": "idrisb (https://sketchfab.com/idrisb)",
      "license": "COPYRIGHT TO idrisb",
      "source": "https://sketchfab.com/3d-models/island-81311515ff0842d687abce4c7eafc4f1",
      "title": "Island"
    },
    "generator": "Sketchfab-10.10.1-rc1",
    "version": "2.0"
  },
  "bufferViews": [
    {
      "buffer": 0,
      "byteLength": 3794964,
      "byteOffset": 0,
      "name": "floatBufferViews",
      "target": 34963
    },
    {
      "buffer": 0,
      "byteLength": 7931256,
      "byteOffset": 3794964,
      "byteStride": 12,
      "name": "floatBufferViews",
      "target": 34962
    },
    {
      "buffer": 0,
      "byteLength": 5287504,
      "byteOffset": 11726220,
      "byteStride": 16,
      "name": "floatBufferViews",
      "target": 34962
    }
  ],
  "buffers": [
    {
      "byteLength": 17013724,
      "uri": "scene.bin"
    }
  ],
  "extensionsUsed": [
    "KHR_materials_unlit"
  ],
  "materials": [
    {
      "doubleSided": true,
      "emissiveFactor": [
        0,
        0,
        0
      ],
      "extensions": {
        "KHR_materials_unlit": {}
      },
      "name": "Single_Sided_Material",
      "pbrMetallicRoughness": {
        "baseColorFactor": [
          0.80000000000000004,
          0.80000000000000004,
          0.80000000000000004,
          1
        ],
        "metallicFactor": 0,
        "roughnessFactor": 1
      }
    },
    {
      "doubleSided": true,
      "emissiveFactor": [
        0,
        0,
        0
      ],
      "extensions": {
        "KHR_materials_unlit": {}
      },
      "name": "Double_Sided_Material",
      "pbrMetallicRoughness": {
        "baseColorFactor": [
          0.80000000000000004,
          0.80000000000000004,
          0.80000000000000004,
          1
        ],
        "metallicFactor": 0,
        "roughnessFactor": 1
      }
    }
  ],
  "meshes": [
    {
      "name": "Island2_Single Sided Material_0",
      "primitives": [
        {
          "attributes": {
            "COLOR_0": 2,
            "NORMAL": 1,
            "POSITION": 0
          },
          "indices": 3,
          "material": 0,
          "mode": 4
        }
      ]
    },
    {
      "name": "Island2_Single Sided Material_0",
      "primitives": [
        {
          "attributes": {
            "COLOR_0": 6,
            "NORMAL": 5,
            "POSITION": 4
          },
          "indices": 7,
          "material": 0,
          "mode": 4
        }
      ]
    },
    {
      "name": "Island2_Double Sided Material_0",
      "primitives": [
        {
          "attributes": {
            "COLOR_0": 10,
            "NORMAL": 9,
            "POSITION": 8
          },
          "indices": 11,
          "material": 1,
          "mode": 4
        }
      ]
    },
    {
      "name": "IslandTrees_Double Sided Material_0",
      "primitives": [
        {
          "attributes": {
            "COLOR_0": 14,
            "NORMAL": 13,
            "POSITION": 12
          },
          "indices": 15,
          "material": 1,
          "mode": 4
        }
      ]
    },
    {
      "name": "IslandTrees_Double Sided Material_0",
      "primitives": [
        {
          "attributes": {
            "COLOR_0": 18,
            "NORMAL": 17,
            "POSITION": 16
          },
          "indices": 19,
          "material": 1,
          "mode": 4
        }
      ]
    },
    {
      "name": "IslandTrees_Single Sided Material_0",
      "primitives": [
        {
          "attributes": {
            "COLOR_0": 22,
            "NORMAL": 21,
            "POSITION": 20
          },
          "indices": 23,
          "material": 0,
          "mode": 4
        }
      ]
    },
    {
      "name": "IslandTrees_Single Sided Material_0",
      "primitives": [
        {
          "attributes": {
            "COLOR_0": 26,
            "NORMAL": 25,
            "POSITION": 24
          },
          "indices": 27,
          "material": 0,
          "mode": 4
        }
      ]
    }
  ],
  "nodes": [
    {
      "children": [
        1
      ],
      "name": "RootNode (gltf orientation matrix)",
      "rotation": [
        -0.70710678118654746,
        -0,
        -0,
        0.70710678118654757
      ]
    },
    {
      "children": [
        2
      ],
      "name": "RootNode (model correction matrix)"
    },
    {
      "children": [
        3
      ],
      "matrix": [
        1,
        0,
        0,
        0,
        0,
        0,
        1,
        0,
        0,
        -1,
        0,
        0,
        0,
        0,
        0,
        1
      ],
      "name": "9e79f3c48773455fabdfecadd88d76da.fbx"
    },
    {
      "children": [
        4
      ],
      "name": "RootNode"
    },
    {
      "children": [
        5
      ],
      "name": "BakedMesh"
    },
    {
      "children": [
        6,
        10
      ],
      "name": "Root"
    },
    {
      "children": [
        7,
        8,
        9
      ],
      "name": "Island2"
    },
    {
      "mesh": 0,
      "name": "Island2_Single Sided Material_0"
    },
    {
      "mesh": 1,
      "name": "Island2_Single Sided Material_0"
    },
    {
      "mesh": 2,
      "name": "Island2_Double Sided Material_0"
    },
    {
      "children": [
        11,
        12,
        13,
        14
      ],
      "name": "IslandTrees"
    },
    {
      "mesh": 3,
      "name": "IslandTrees_Double Sided Material_0"
    },
    {
      "mesh": 4,
      "name": "IslandTrees_Double Sided Material_0"
    },
    {
      "mesh": 5,
      "name": "IslandTrees_Single Sided Material_0"
    },
    {
      "mesh": 6,
      "name": "IslandTrees_Single Sided Material_0"
    }
  ],
  "scene": 0,
  "scenes": [
    {
      "name": "OSG_Scene",
      "nodes": [
        0
      ]
    }
  ]
}

