{
  "accessors": [
    {
      "bufferView": 1,
      "componentType": 5126,
      "count": 4319,
      "max": [
        2.0862321853637695,
        4.6730475425720215,
        0.60565829277038574
      ],
      "min": [
        -4.2230877876281738,
        1.9348509311676025,
        -4.9560437202453613
      ],
      "type": "VEC3"
    },
    {
      "bufferView": 1,
      "byteOffset": 51828,
      "componentType": 5126,
      "count": 4319,
      "max": [
        0.99969708919525146,
        0.99988651275634766,
        0.99993139505386353
      ],
      "min": [
        -0.9999544620513916,
        -0.99984687566757202,
        -0.99997508525848389
      ],
      "type": "VEC3"
    },
    {
      "bufferView": 2,
      "componentType": 5126,
      "count": 4319,
      "max": [
        1,
        0.99215686321258545,
        0.96470588445663452,
        1
      ],
      "min": [
        0.12941177189350128,
        0.13725490868091583,
        0.074509806931018829,
        1
      ],
      "type": "VEC4"
    },
    {
      "bufferView": 0,
      "componentType": 5125,
      "count": 14586,
      "max": [
        4318
      ],
      "min": [
        0
      ],
      "type": "SCALAR"
    },
    {
      "bufferView": 3,
      "componentType": 5126,
      "count": 4,
      "max": [
        1.0000100135803223
      ],
      "min": [
        0
      ],
      "type": "SCALAR"
    },
    {
      "bufferView": 4,
      "componentType": 5126,
      "count": 4,
      "max": [
        2,
        2,
        2
      ],
      "min": [
        1.000000013351432e-10,
        1.000000013351432e-10,
        1.000000013351432e-10
      ],
      "type": "VEC3"
    }
  ],
  "animations": [
    {
      "channels": [
        {
          "sampler": 0,
          "target": {
            "node": 8,
            "path": "scale"
          }
        }
      ],
      "name": "animation",
      "samplers": [
        {
          "input": 4,
          "interpolation": "LINEAR",
          "output": 5
        }
      ]
    }
  ],
  "asset": {
    "extras": {
      "author": "idrisb (https://sketchfab.com/idrisb)",
      "license": "COPYRIGHT TO idrisb",
      "source": "https://sketchfab.com/3d-models/animation-95723690e84644478e769cbee8945d7e",
      "title": "animation"
    },
    "generator": "Sketchfab-9.22.0",
    "version": "2.0"
  },
  "bufferViews": [
    {
      "buffer": 0,
      "byteLength": 58344,
      "byteOffset": 0,
      "name": "floatBufferViews",
      "target": 34963
    },
    {
      "buffer": 0,
      "byteLength": 103656,
      "byteOffset": 58344,
      "byteStride": 12,
      "name": "floatBufferViews",
      "target": 34962
    },
    {
      "buffer": 0,
      "byteLength": 69104,
      "byteOffset": 162000,
      "byteStride": 16,
      "name": "floatBufferViews",
      "target": 34962
    },
    {
      "buffer": 0,
      "byteLength": 16,
      "byteOffset": 231104,
      "name": "floatBufferViews"
    },
    {
      "buffer": 0,
      "byteLength": 48,
      "byteOffset": 231120,
      "byteStride": 12,
      "name": "floatBufferViews"
    }
  ],
  "buffers": [
    {
      "byteLength": 231168,
      "uri": "scene.bin"
    }
  ],
  "extensionsUsed": [
    "KHR_materials_unlit"
  ],
  "materials": [
    {
      "doubleSided": true,
      "extensions": {
        "KHR_materials_unlit": {}
      },
      "name": "vertexColor_shader",
      "pbrMetallicRoughness": {
        "baseColorFactor": [
          1,
          1,
          1,
          1
        ],
        "metallicFactor": 0,
        "roughnessFactor": 1
      }
    }
  ],
  "meshes": [
    {
      "name": "Ship_0006_vertexColor_shader_0",
      "primitives": [
        {
          "attributes": {
            "COLOR_0": 2,
            "NORMAL": 1,
            "POSITION": 0
          },
          "indices": 3,
          "material": 0,
          "mode": 4
        }
      ]
    }
  ],
  "nodes": [
    {
      "children": [
        1
      ],
      "name": "RootNode (gltf orientation matrix)",
      "rotation": [
        -0.70710678118654746,
        -0,
        -0,
        0.70710678118654757
      ]
    },
    {
      "children": [
        2
      ],
      "name": "RootNode (model correction matrix)"
    },
    {
      "children": [
        3
      ],
      "matrix": [
        1,
        0,
        0,
        0,
        0,
        0,
        1,
        0,
        0,
        -1,
        0,
        0,
        0,
        0,
        0,
        1
      ],
      "name": "d9b50eda3f684dc4a1c1a62985f6136a.fbx"
    },
    {
      "children": [
        4
      ],
      "name": ""
    },
    {
      "children": [
        5
      ],
      "name": "RootNode"
    },
    {
      "children": [
        6
      ],
      "name": "BakedMesh"
    },
    {
      "children": [
        7
      ],
      "name": "Root"
    },
    {
      "children": [
        8
      ],
      "name": "Ship",
      "rotation": [
        0.09829314798116684,
        0.82968640327453613,
        0.10512132197618484,
        0.53935927152633667
      ],
      "translation": [
        11.197463989257812,
        -4.4622035026550293,
        119.52912902832031
      ]
    },
    {
      "children": [
        9
      ],
      "name": "Ship_0006",
      "rotation": [
        2.0816681711721685e-17,
        8.3266726846886741e-17,
        -1.3877787807814457e-17,
        1
      ],
      "scale": [
        2,
        2,
        2
      ]
    },
    {
      "mesh": 0,
      "name": "Ship_0006_vertexColor_shader_0"
    }
  ],
  "scene": 0,
  "scenes": [
    {
      "name": "OSG_Scene",
      "nodes": [
        0
      ]
    }
  ]
}

