{
  "accessors": [
    {
      "bufferView": 1,
      "componentType": 5126,
      "count": 5235,
      "max": [
        -5.0903358459472656,
        -0.36785688996315002,
        -50.119613647460938
      ],
      "min": [
        -7.9609971046447754,
        -1.67848801612854,
        -52.780349731445312
      ],
      "type": "VEC3"
    },
    {
      "bufferView": 1,
      "byteOffset": 62820,
      "componentType": 5126,
      "count": 5235,
      "max": [
        0.99948710203170776,
        0.99954307079315186,
        0.99988919496536255
      ],
      "min": [
        -0.99975615739822388,
        -0.99960798025131226,
        -0.9998508095741272
      ],
      "type": "VEC3"
    },
    {
      "bufferView": 2,
      "componentType": 5126,
      "count": 5235,
      "max": [
        0.25490197539329529,
        0.23921568691730499,
        0.16470588743686676,
        1
      ],
      "min": [
        0.015686275437474251,
        0.019607843831181526,
        0.015686275437474251,
        1
      ],
      "type": "VEC4"
    },
    {
      "bufferView": 0,
      "componentType": 5125,
      "count": 19404,
      "max": [
        5234
      ],
      "min": [
        0
      ],
      "type": "SCALAR"
    },
    {
      "bufferView": 1,
      "byteOffset": 125640,
      "componentType": 5126,
      "count": 3492,
      "max": [
        -4.7563295364379883,
        7.9553155899047852,
        -49.220340728759766
      ],
      "min": [
        -8.9565238952636719,
        -1.7263598442077637,
        -53.126354217529297
      ],
      "type": "VEC3"
    },
    {
      "bufferView": 1,
      "byteOffset": 167544,
      "componentType": 5126,
      "count": 3492,
      "max": [
        0.99686932563781738,
        0.99888515472412109,
        0.99998199939727783
      ],
      "min": [
        -0.99788808822631836,
        -0.99610453844070435,
        -0.99982345104217529
      ],
      "type": "VEC3"
    },
    {
      "bufferView": 2,
      "byteOffset": 83760,
      "componentType": 5126,
      "count": 3492,
      "max": [
        0.83529412746429443,
        0.9843137264251709,
        0.85882353782653809,
        1
      ],
      "min": [
        0.0039215688593685627,
        0,
        0,
        1
      ],
      "type": "VEC4"
    },
    {
      "bufferView": 0,
      "byteOffset": 77616,
      "componentType": 5125,
      "count": 8760,
      "max": [
        3491
      ],
      "min": [
        0
      ],
      "type": "SCALAR"
    }
  ],
  "asset": {
    "extras": {
      "author": "idrisb (https://sketchfab.com/idrisb)",
      "license": "COPYRIGHT TO idrisb",
      "source": "https://sketchfab.com/3d-models/well-046ff6ed120b4f8c828bd1eaee0e4c5d",
      "title": "Well"
    },
    "generator": "Sketchfab-10.10.1-rc1",
    "version": "2.0"
  },
  "bufferViews": [
    {
      "buffer": 0,
      "byteLength": 112656,
      "byteOffset": 0,
      "name": "floatBufferViews",
      "target": 34963
    },
    {
      "buffer": 0,
      "byteLength": 209448,
      "byteOffset": 112656,
      "byteStride": 12,
      "name": "floatBufferViews",
      "target": 34962
    },
    {
      "buffer": 0,
      "byteLength": 139632,
      "byteOffset": 322104,
      "byteStride": 16,
      "name": "floatBufferViews",
      "target": 34962
    }
  ],
  "buffers": [
    {
      "byteLength": 461736,
      "uri": "scene.bin"
    }
  ],
  "extensionsUsed": [
    "KHR_materials_unlit"
  ],
  "materials": [
    {
      "doubleSided": true,
      "emissiveFactor": [
        0,
        0,
        0
      ],
      "extensions": {
        "KHR_materials_unlit": {}
      },
      "name": "Single_Sided_Material",
      "pbrMetallicRoughness": {
        "baseColorFactor": [
          0.80000000000000004,
          0.80000000000000004,
          0.80000000000000004,
          1
        ],
        "metallicFactor": 0,
        "roughnessFactor": 1
      }
    },
    {
      "doubleSided": true,
      "emissiveFactor": [
        0,
        0,
        0
      ],
      "extensions": {
        "KHR_materials_unlit": {}
      },
      "name": "Double_Sided_Material",
      "pbrMetallicRoughness": {
        "baseColorFactor": [
          0.80000000000000004,
          0.80000000000000004,
          0.80000000000000004,
          1
        ],
        "metallicFactor": 0,
        "roughnessFactor": 1
      }
    }
  ],
  "meshes": [
    {
      "name": "Well_Single Sided Material_0",
      "primitives": [
        {
          "attributes": {
            "COLOR_0": 2,
            "NORMAL": 1,
            "POSITION": 0
          },
          "indices": 3,
          "material": 0,
          "mode": 4
        }
      ]
    },
    {
      "name": "Well_Double Sided Material_0",
      "primitives": [
        {
          "attributes": {
            "COLOR_0": 6,
            "NORMAL": 5,
            "POSITION": 4
          },
          "indices": 7,
          "material": 1,
          "mode": 4
        }
      ]
    }
  ],
  "nodes": [
    {
      "children": [
        1
      ],
      "name": "RootNode (gltf orientation matrix)",
      "rotation": [
        -0.70710678118654746,
        -0,
        -0,
        0.70710678118654757
      ]
    },
    {
      "children": [
        2
      ],
      "name": "RootNode (model correction matrix)"
    },
    {
      "children": [
        3
      ],
      "matrix": [
        1,
        0,
        0,
        0,
        0,
        0,
        1,
        0,
        0,
        -1,
        0,
        0,
        0,
        0,
        0,
        1
      ],
      "name": "da898ca762c74ba2a6dfc9f5af24e669.fbx"
    },
    {
      "children": [
        4
      ],
      "name": "RootNode"
    },
    {
      "children": [
        5
      ],
      "name": "BakedMesh"
    },
    {
      "children": [
        6
      ],
      "name": "Root"
    },
    {
      "children": [
        7,
        8
      ],
      "name": "Well"
    },
    {
      "mesh": 0,
      "name": "Well_Single Sided Material_0"
    },
    {
      "mesh": 1,
      "name": "Well_Double Sided Material_0"
    }
  ],
  "scene": 0,
  "scenes": [
    {
      "name": "OSG_Scene",
      "nodes": [
        0
      ]
    }
  ]
}

