{
  "accessors": [
    {
      "bufferView": 1,
      "componentType": 5126,
      "count": 792,
      "max": [
        121.14723968505859,
        18.666910171508789,
        181.50970458984375
      ],
      "min": [
        -86.686241149902344,
        -30.137481689453125,
        -28.870153427124023
      ],
      "type": "VEC3"
    },
    {
      "bufferView": 1,
      "byteOffset": 9504,
      "componentType": 5126,
      "count": 792,
      "max": [
        0.99998307228088379,
        0.99858421087265015,
        1
      ],
      "min": [
        -0.99999582767486572,
        -1,
        -0.99226528406143188
      ],
      "type": "VEC3"
    },
    {
      "bufferView": 2,
      "componentType": 5126,
      "count": 792,
      "max": [
        0.85098040103912354,
        0.84705883264541626,
        0.83137255907058716,
        1
      ],
      "min": [
        0.49803921580314636,
        0.43137255311012268,
        0.5372549295425415,
        1
      ],
      "type": "VEC4"
    },
    {
      "bufferView": 0,
      "componentType": 5125,
      "count": 2976,
      "max": [
        791
      ],
      "min": [
        0
      ],
      "type": "SCALAR"
    }
  ],
  "asset": {
    "extras": {
      "author": "idrisb (https://sketchfab.com/idrisb)",
      "license": "CC-BY-4.0 (http://creativecommons.org/licenses/by/4.0/)",
      "source": "https://sketchfab.com/3d-models/island-8861d26f18574715914a9efb82a5b2d2",
      "title": "island"
    },
    "generator": "Sketchfab-9.23.0",
    "version": "2.0"
  },
  "bufferViews": [
    {
      "buffer": 0,
      "byteLength": 11904,
      "byteOffset": 0,
      "name": "floatBufferViews",
      "target": 34963
    },
    {
      "buffer": 0,
      "byteLength": 19008,
      "byteOffset": 11904,
      "byteStride": 12,
      "name": "floatBufferViews",
      "target": 34962
    },
    {
      "buffer": 0,
      "byteLength": 12672,
      "byteOffset": 30912,
      "byteStride": 16,
      "name": "floatBufferViews",
      "target": 34962
    }
  ],
  "buffers": [
    {
      "byteLength": 43584,
      "uri": "scene.bin"
    }
  ],
  "extensionsUsed": [
    "KHR_materials_unlit"
  ],
  "materials": [
    {
      "doubleSided": true,
      "extensions": {
        "KHR_materials_unlit": {}
      },
      "name": "vertexColor_shader",
      "pbrMetallicRoughness": {
        "baseColorFactor": [
          1,
          1,
          1,
          1
        ],
        "metallicFactor": 0,
        "roughnessFactor": 1
      }
    }
  ],
  "meshes": [
    {
      "name": "Island1_0000_vertexColor_shader_0",
      "primitives": [
        {
          "attributes": {
            "COLOR_0": 2,
            "NORMAL": 1,
            "POSITION": 0
          },
          "indices": 3,
          "material": 0,
          "mode": 4
        }
      ]
    }
  ],
  "nodes": [
    {
      "children": [
        1
      ],
      "name": "RootNode (gltf orientation matrix)",
      "rotation": [
        -0.70710678118654746,
        -0,
        -0,
        0.70710678118654757
      ]
    },
    {
      "children": [
        2
      ],
      "name": "RootNode (model correction matrix)"
    },
    {
      "children": [
        3
      ],
      "matrix": [
        1,
        0,
        0,
        0,
        0,
        0,
        1,
        0,
        0,
        -1,
        0,
        0,
        0,
        0,
        0,
        1
      ],
      "name": "ee0a1ce9ce6b4958a8baeb17e76e375b.fbx"
    },
    {
      "children": [
        4
      ],
      "name": "RootNode"
    },
    {
      "children": [
        5
      ],
      "name": "BakedMesh"
    },
    {
      "children": [
        6
      ],
      "name": "Root"
    },
    {
      "children": [
        7
      ],
      "name": "Island"
    },
    {
      "children": [
        8
      ],
      "name": "Island1"
    },
    {
      "children": [
        9
      ],
      "name": "Island1_0000"
    },
    {
      "mesh": 0,
      "name": "Island1_0000_vertexColor_shader_0"
    }
  ],
  "scene": 0,
  "scenes": [
    {
      "name": "OSG_Scene",
      "nodes": [
        0
      ]
    }
  ]
}

