{
  "accessors": [
    {
      "bufferView": 1,
      "componentType": 5126,
      "count": 792,
      "max": [
        121.14723968505859,
        18.666910171508789,
        181.50970458984375
      ],
      "min": [
        -86.686241149902344,
        -30.137481689453125,
        -28.870153427124023
      ],
      "type": "VEC3"
    },
    {
      "bufferView": 1,
      "byteOffset": 9504,
      "componentType": 5126,
      "count": 792,
      "max": [
        0.99998307228088379,
        0.99858421087265015,
        1
      ],
      "min": [
        -0.99999582767486572,
        -1,
        -0.99226528406143188
      ],
      "type": "VEC3"
    },
    {
      "bufferView": 2,
      "componentType": 5126,
      "count": 792,
      "max": [
        0.85098040103912354,
        0.84705883264541626,
        0.83137255907058716,
        1
      ],
      "min": [
        0.49803921580314636,
        0.43137255311012268,
        0.5372549295425415,
        1
      ],
      "type": "VEC4"
    },
    {
      "bufferView": 0,
      "componentType": 5125,
      "count": 2976,
      "max": [
        791
      ],
      "min": [
        0
      ],
      "type": "SCALAR"
    },
    {
      "bufferView": 1,
      "byteOffset": 19008,
      "componentType": 5126,
      "count": 49445,
      "max": [
        82.544113159179688,
        54.584095001220703,
        149.05357360839844
      ],
      "min": [
        -32.472057342529297,
        -12.235714912414551,
        12.658356666564941
      ],
      "type": "VEC3"
    },
    {
      "bufferView": 1,
      "byteOffset": 612348,
      "componentType": 5126,
      "count": 49445,
      "max": [
        0.999927818775177,
        0.99992901086807251,
        0.99994796514511108
      ],
      "min": [
        -0.99998354911804199,
        -0.99998188018798828,
        -0.99998724460601807
      ],
      "type": "VEC3"
    },
    {
      "bufferView": 2,
      "byteOffset": 12672,
      "componentType": 5126,
      "count": 49445,
      "max": [
        0.96470588445663452,
        0.83137255907058716,
        1,
        1
      ],
      "min": [
        0.30196079611778259,
        0,
        0.32941177487373352,
        1
      ],
      "type": "VEC4"
    },
    {
      "bufferView": 0,
      "byteOffset": 11904,
      "componentType": 5125,
      "count": 201822,
      "max": [
        49444
      ],
      "min": [
        0
      ],
      "type": "SCALAR"
    },
    {
      "bufferView": 3,
      "componentType": 5126,
      "count": 3,
      "max": [
        0.16667667031288147
      ],
      "min": [
        0
      ],
      "type": "SCALAR"
    },
    {
      "bufferView": 4,
      "componentType": 5126,
      "count": 3,
      "max": [
        1,
        1,
        1
      ],
      "min": [
        1.000000013351432e-10,
        1.000000013351432e-10,
        1.000000013351432e-10
      ],
      "type": "VEC3"
    }
  ],
  "animations": [
    {
      "channels": [
        {
          "sampler": 0,
          "target": {
            "node": 12,
            "path": "scale"
          }
        }
      ],
      "name": "Take 001",
      "samplers": [
        {
          "input": 8,
          "interpolation": "LINEAR",
          "output": 9
        }
      ]
    }
  ],
  "asset": {
    "extras": {
      "author": "idrisb (https://sketchfab.com/idrisb)",
      "license": "CC-BY-4.0 (http://creativecommons.org/licenses/by/4.0/)",
      "source": "https://sketchfab.com/3d-models/island1-8861d26f18574715914a9efb82a5b2d2",
      "title": "island1"
    },
    "generator": "Sketchfab-9.22.0",
    "version": "2.0"
  },
  "bufferViews": [
    {
      "buffer": 0,
      "byteLength": 819192,
      "byteOffset": 0,
      "name": "floatBufferViews",
      "target": 34963
    },
    {
      "buffer": 0,
      "byteLength": 1205688,
      "byteOffset": 819192,
      "byteStride": 12,
      "name": "floatBufferViews",
      "target": 34962
    },
    {
      "buffer": 0,
      "byteLength": 803792,
      "byteOffset": 2024880,
      "byteStride": 16,
      "name": "floatBufferViews",
      "target": 34962
    },
    {
      "buffer": 0,
      "byteLength": 12,
      "byteOffset": 2828672,
      "name": "floatBufferViews"
    },
    {
      "buffer": 0,
      "byteLength": 36,
      "byteOffset": 2828684,
      "byteStride": 12,
      "name": "floatBufferViews"
    }
  ],
  "buffers": [
    {
      "byteLength": 2828720,
      "uri": "scene.bin"
    }
  ],
  "extensionsUsed": [
    "KHR_materials_unlit"
  ],
  "materials": [
    {
      "doubleSided": true,
      "extensions": {
        "KHR_materials_unlit": {}
      },
      "name": "vertexColor_shader",
      "pbrMetallicRoughness": {
        "baseColorFactor": [
          1,
          1,
          1,
          1
        ],
        "metallicFactor": 0,
        "roughnessFactor": 1
      }
    }
  ],
  "meshes": [
    {
      "name": "Island1_0000_vertexColor_shader_0",
      "primitives": [
        {
          "attributes": {
            "COLOR_0": 2,
            "NORMAL": 1,
            "POSITION": 0
          },
          "indices": 3,
          "material": 0,
          "mode": 4
        }
      ]
    },
    {
      "name": "Trees4_0000_vertexColor_shader_0",
      "primitives": [
        {
          "attributes": {
            "COLOR_0": 6,
            "NORMAL": 5,
            "POSITION": 4
          },
          "indices": 7,
          "material": 0,
          "mode": 4
        }
      ]
    }
  ],
  "nodes": [
    {
      "children": [
        1
      ],
      "name": "RootNode (gltf orientation matrix)",
      "rotation": [
        -0.70710678118654746,
        -0,
        -0,
        0.70710678118654757
      ]
    },
    {
      "children": [
        2
      ],
      "name": "RootNode (model correction matrix)"
    },
    {
      "children": [
        3
      ],
      "matrix": [
        1,
        0,
        0,
        0,
        0,
        0,
        1,
        0,
        0,
        -1,
        0,
        0,
        0,
        0,
        0,
        1
      ],
      "name": "c98edc080e1142eab7f758a88a1ac17b.fbx"
    },
    {
      "children": [
        4
      ],
      "name": ""
    },
    {
      "children": [
        5
      ],
      "name": "RootNode"
    },
    {
      "children": [
        6
      ],
      "name": "BakedMesh"
    },
    {
      "children": [
        7
      ],
      "name": "Root"
    },
    {
      "children": [
        8,
        11
      ],
      "name": "Island"
    },
    {
      "children": [
        9
      ],
      "name": "Island1"
    },
    {
      "children": [
        10
      ],
      "name": "Island1_0000"
    },
    {
      "mesh": 0,
      "name": "Island1_0000_vertexColor_shader_0"
    },
    {
      "children": [
        12
      ],
      "name": "Trees4",
      "scale": [
        0.76015710830688477,
        0.76015710830688477,
        0.76015710830688477
      ],
      "translation": [
        4.1326122283935547,
        7.3519678115844727,
        18.349868774414062
      ]
    },
    {
      "children": [
        13
      ],
      "name": "Trees4_0000"
    },
    {
      "mesh": 1,
      "name": "Trees4_0000_vertexColor_shader_0"
    }
  ],
  "scene": 0,
  "scenes": [
    {
      "name": "OSG_Scene",
      "nodes": [
        0
      ]
    }
  ]
}

