{
  "accessors": [
    {
      "bufferView": 1,
      "componentType": 5126,
      "count": 8425,
      "max": [
        9.6368331909179688,
        4.0819845199584961,
        96.402748107910156
      ],
      "min": [
        -1.180300235748291,
        -0.99602586030960083,
        85.834526062011719
      ],
      "type": "VEC3"
    },
    {
      "bufferView": 1,
      "byteOffset": 101100,
      "componentType": 5126,
      "count": 8425,
      "max": [
        0.99982976913452148,
        0.99996483325958252,
        0.99812078475952148
      ],
      "min": [
        -0.99988865852355957,
        -0.9998365044593811,
        -0.99933475255966187
      ],
      "type": "VEC3"
    },
    {
      "bufferView": 2,
      "componentType": 5126,
      "count": 8425,
      "max": [
        0.92941176891326904,
        0.85882353782653809,
        0.78039216995239258,
        1
      ],
      "min": [
        0.098039217293262482,
        0.054901961237192154,
        0.039215687662363052,
        0.61960786581039429
      ],
      "type": "VEC4"
    },
    {
      "bufferView": 0,
      "componentType": 5125,
      "count": 21474,
      "max": [
        8424
      ],
      "min": [
        0
      ],
      "type": "SCALAR"
    },
    {
      "bufferView": 3,
      "componentType": 5126,
      "count": 3,
      "max": [
        0.16667667031288147
      ],
      "min": [
        0
      ],
      "type": "SCALAR"
    },
    {
      "bufferView": 4,
      "componentType": 5126,
      "count": 3,
      "max": [
        1,
        1,
        1
      ],
      "min": [
        1.000000013351432e-10,
        1.000000013351432e-10,
        1.000000013351432e-10
      ],
      "type": "VEC3"
    }
  ],
  "animations": [
    {
      "channels": [
        {
          "sampler": 0,
          "target": {
            "node": 8,
            "path": "scale"
          }
        }
      ],
      "name": "Take 001",
      "samplers": [
        {
          "input": 4,
          "interpolation": "LINEAR",
          "output": 5
        }
      ]
    }
  ],
  "asset": {
    "extras": {
      "author": "idrisb (https://sketchfab.com/idrisb)",
      "license": "CC-BY-4.0 (http://creativecommons.org/licenses/by/4.0/)",
      "source": "https://sketchfab.com/3d-models/house-529f5e1239604e598e1b33734845c491",
      "title": "house"
    },
    "generator": "Sketchfab-9.22.0",
    "version": "2.0"
  },
  "bufferViews": [
    {
      "buffer": 0,
      "byteLength": 85896,
      "byteOffset": 0,
      "name": "floatBufferViews",
      "target": 34963
    },
    {
      "buffer": 0,
      "byteLength": 202200,
      "byteOffset": 85896,
      "byteStride": 12,
      "name": "floatBufferViews",
      "target": 34962
    },
    {
      "buffer": 0,
      "byteLength": 134800,
      "byteOffset": 288096,
      "byteStride": 16,
      "name": "floatBufferViews",
      "target": 34962
    },
    {
      "buffer": 0,
      "byteLength": 12,
      "byteOffset": 422896,
      "name": "floatBufferViews"
    },
    {
      "buffer": 0,
      "byteLength": 36,
      "byteOffset": 422908,
      "byteStride": 12,
      "name": "floatBufferViews"
    }
  ],
  "buffers": [
    {
      "byteLength": 422944,
      "uri": "scene.bin"
    }
  ],
  "extensionsUsed": [
    "KHR_materials_unlit"
  ],
  "materials": [
    {
      "doubleSided": true,
      "extensions": {
        "KHR_materials_unlit": {}
      },
      "name": "vertexColor_shader",
      "pbrMetallicRoughness": {
        "baseColorFactor": [
          1,
          1,
          1,
          1
        ],
        "metallicFactor": 0,
        "roughnessFactor": 1
      }
    }
  ],
  "meshes": [
    {
      "name": "House_0000_vertexColor_shader_0",
      "primitives": [
        {
          "attributes": {
            "COLOR_0": 2,
            "NORMAL": 1,
            "POSITION": 0
          },
          "indices": 3,
          "material": 0,
          "mode": 4
        }
      ]
    }
  ],
  "nodes": [
    {
      "children": [
        1
      ],
      "name": "RootNode (gltf orientation matrix)",
      "rotation": [
        -0.70710678118654746,
        -0,
        -0,
        0.70710678118654757
      ]
    },
    {
      "children": [
        2
      ],
      "name": "RootNode (model correction matrix)"
    },
    {
      "children": [
        3
      ],
      "matrix": [
        1,
        0,
        0,
        0,
        0,
        0,
        1,
        0,
        0,
        -1,
        0,
        0,
        0,
        0,
        0,
        1
      ],
      "name": "c7d1522f4b01435f9767d9760eb2d960.fbx"
    },
    {
      "children": [
        4
      ],
      "name": ""
    },
    {
      "children": [
        5
      ],
      "name": "RootNode"
    },
    {
      "children": [
        6
      ],
      "name": "BakedMesh"
    },
    {
      "children": [
        7
      ],
      "name": "Root"
    },
    {
      "children": [
        8
      ],
      "name": "House",
      "rotation": [
        0.016648942604660988,
        -0.38247102499008179,
        0.062933526933193207,
        0.92167133092880249
      ],
      "translation": [
        59.520317077636719,
        8.9977684020996094,
        7.3428773880004883
      ]
    },
    {
      "children": [
        9
      ],
      "name": "House_0000",
      "rotation": [
        -2.1666711874356403e-34,
        -2.7755575615628914e-17,
        -7.8062556418956319e-18,
        1
      ]
    },
    {
      "mesh": 0,
      "name": "House_0000_vertexColor_shader_0"
    }
  ],
  "scene": 0,
  "scenes": [
    {
      "name": "OSG_Scene",
      "nodes": [
        0
      ]
    }
  ]
}

